<?xml version="1.0" standalone="no"?>
<!DOCTYPE svg PUBLIC "-//W3C//DTD SVG 1.1//EN" "http://www.w3.org/Graphics/SVG/1.1/DTD/svg11.dtd" >
<svg xmlns="http://www.w3.org/2000/svg" xmlns:xlink="http://www.w3.org/1999/xlink" version="1.1">
<metadata>
Created by FontForge 20201107 at Fri Jan 29 22:15:41 2021
 By Filipe Lima
Copyright (c) 2021, Filipe Lima
</metadata>
<defs>
<font id="Lima" horiz-adv-x="1000" >
  <font-face 
    font-family="Lima"
    font-weight="400"
    font-stretch="normal"
    units-per-em="1000"
    panose-1="2 0 5 9 0 0 0 0 0 0"
    ascent="800"
    descent="-200"
    x-height="456"
    cap-height="790"
    bbox="0 -190 992 802"
    underline-thickness="50"
    underline-position="-100"
    unicode-range="U+0021-F0FE"
  />
<missing-glyph 
d="M33 0v666h265v-666h-265zM66 33h199v600h-199v-600z" />
    <glyph glyph-name=".notdef" unicode="&#xf0fe;" 
d="M33 0v666h265v-666h-265zM66 33h199v600h-199v-600z" />
    <glyph glyph-name=".notdef" unicode="&#x2db;" 
d="M33 0v666h265v-666h-265zM66 33h199v600h-199v-600z" />
    <glyph glyph-name=".notdef" unicode="&#x2dd;" 
d="M33 0v666h265v-666h-265zM66 33h199v600h-199v-600z" />
    <glyph glyph-name=".notdef" unicode="&#xb8;" 
d="M33 0v666h265v-666h-265zM66 33h199v600h-199v-600z" />
    <glyph glyph-name=".notdef" unicode="&#x2da;" 
d="M33 0v666h265v-666h-265zM66 33h199v600h-199v-600z" />
    <glyph glyph-name=".notdef" unicode="&#x2d9;" 
d="M33 0v666h265v-666h-265zM66 33h199v600h-199v-600z" />
    <glyph glyph-name=".notdef" unicode="&#x2d8;" 
d="M33 0v666h265v-666h-265zM66 33h199v600h-199v-600z" />
    <glyph glyph-name=".notdef" unicode="&#xaf;" 
d="M33 0v666h265v-666h-265zM66 33h199v600h-199v-600z" />
    <glyph glyph-name=".notdef" unicode="&#x2dc;" 
d="M33 0v666h265v-666h-265zM66 33h199v600h-199v-600z" />
    <glyph glyph-name=".notdef" unicode="&#x2c6;" 
d="M33 0v666h265v-666h-265zM66 33h199v600h-199v-600z" />
    <glyph glyph-name=".notdef" unicode="&#x131;" 
d="M33 0v666h265v-666h-265zM66 33h199v600h-199v-600z" />
    <glyph glyph-name=".notdef" unicode="&#xd9;" 
d="M33 0v666h265v-666h-265zM66 33h199v600h-199v-600z" />
    <glyph glyph-name=".notdef" unicode="&#xdb;" 
d="M33 0v666h265v-666h-265zM66 33h199v600h-199v-600z" />
    <glyph glyph-name=".notdef" unicode="&#xda;" 
d="M33 0v666h265v-666h-265zM66 33h199v600h-199v-600z" />
    <glyph glyph-name=".notdef" unicode="&#xd2;" 
d="M33 0v666h265v-666h-265zM66 33h199v600h-199v-600z" />
    <glyph glyph-name=".notdef" unicode="&#xd4;" 
d="M33 0v666h265v-666h-265zM66 33h199v600h-199v-600z" />
    <glyph glyph-name=".notdef" unicode="&#xd3;" 
d="M33 0v666h265v-666h-265zM66 33h199v600h-199v-600z" />
    <glyph glyph-name=".notdef" unicode="&#xcc;" 
d="M33 0v666h265v-666h-265zM66 33h199v600h-199v-600z" />
    <glyph glyph-name=".notdef" unicode="&#xcf;" 
d="M33 0v666h265v-666h-265zM66 33h199v600h-199v-600z" />
    <glyph glyph-name=".notdef" unicode="&#xce;" 
d="M33 0v666h265v-666h-265zM66 33h199v600h-199v-600z" />
    <glyph glyph-name=".notdef" unicode="&#xcd;" 
d="M33 0v666h265v-666h-265zM66 33h199v600h-199v-600z" />
    <glyph glyph-name=".notdef" unicode="&#xc8;" 
d="M33 0v666h265v-666h-265zM66 33h199v600h-199v-600z" />
    <glyph glyph-name=".notdef" unicode="&#xcb;" 
d="M33 0v666h265v-666h-265zM66 33h199v600h-199v-600z" />
    <glyph glyph-name=".notdef" unicode="&#xc1;" 
d="M33 0v666h265v-666h-265zM66 33h199v600h-199v-600z" />
    <glyph glyph-name=".notdef" unicode="&#xca;" 
d="M33 0v666h265v-666h-265zM66 33h199v600h-199v-600z" />
    <glyph glyph-name=".notdef" unicode="&#xc2;" 
d="M33 0v666h265v-666h-265zM66 33h199v600h-199v-600z" />
    <glyph glyph-name=".notdef" unicode="&#x2030;" 
d="M33 0v666h265v-666h-265zM66 33h199v600h-199v-600z" />
    <glyph glyph-name=".notdef" unicode="&#x201e;" 
d="M33 0v666h265v-666h-265zM66 33h199v600h-199v-600z" />
    <glyph glyph-name=".notdef" unicode="&#x201a;" 
d="M33 0v666h265v-666h-265zM66 33h199v600h-199v-600z" />
    <glyph glyph-name=".notdef" unicode="&#xb7;" 
d="M33 0v666h265v-666h-265zM66 33h199v600h-199v-600z" />
    <glyph glyph-name=".notdef" unicode="&#x2021;" 
d="M33 0v666h265v-666h-265zM66 33h199v600h-199v-600z" />
    <glyph glyph-name=".notdef" unicode="&#xfb02;" 
d="M33 0v666h265v-666h-265zM66 33h199v600h-199v-600z" />
    <glyph glyph-name=".notdef" unicode="&#xfb01;" 
d="M33 0v666h265v-666h-265zM66 33h199v600h-199v-600z" />
    <glyph glyph-name=".notdef" unicode="&#x203a;" 
d="M33 0v666h265v-666h-265zM66 33h199v600h-199v-600z" />
    <glyph glyph-name=".notdef" unicode="&#x2039;" 
d="M33 0v666h265v-666h-265zM66 33h199v600h-199v-600z" />
    <glyph glyph-name=".notdef" unicode="&#xa4;" 
d="M33 0v666h265v-666h-265zM66 33h199v600h-199v-600z" />
    <glyph glyph-name=".notdef" unicode="&#x2044;" 
d="M33 0v666h265v-666h-265zM66 33h199v600h-199v-600z" />
    <glyph glyph-name=".notdef" unicode="&#x178;" 
d="M33 0v666h265v-666h-265zM66 33h199v600h-199v-600z" />
    <glyph glyph-name=".notdef" unicode="&#xff;" 
d="M33 0v666h265v-666h-265zM66 33h199v600h-199v-600z" />
    <glyph glyph-name=".notdef" unicode="&#x25ca;" 
d="M33 0v666h265v-666h-265zM66 33h199v600h-199v-600z" />
    <glyph glyph-name=".notdef" unicode="&#xf7;" 
d="M33 0v666h265v-666h-265zM66 33h199v600h-199v-600z" />
    <glyph glyph-name=".notdef" unicode="&#x2019;" 
d="M33 0v666h265v-666h-265zM66 33h199v600h-199v-600z" />
    <glyph glyph-name=".notdef" unicode="&#x2018;" 
d="M33 0v666h265v-666h-265zM66 33h199v600h-199v-600z" />
    <glyph glyph-name=".notdef" unicode="&#x201d;" 
d="M33 0v666h265v-666h-265zM66 33h199v600h-199v-600z" />
    <glyph glyph-name=".notdef" unicode="&#x201c;" 
d="M33 0v666h265v-666h-265zM66 33h199v600h-199v-600z" />
    <glyph glyph-name=".notdef" unicode="&#x2014;" 
d="M33 0v666h265v-666h-265zM66 33h199v600h-199v-600z" />
    <glyph glyph-name=".notdef" unicode="&#x2013;" 
d="M33 0v666h265v-666h-265zM66 33h199v600h-199v-600z" />
    <glyph glyph-name=".notdef" unicode="&#x153;" 
d="M33 0v666h265v-666h-265zM66 33h199v600h-199v-600z" />
    <glyph glyph-name=".notdef" unicode="&#x152;" 
d="M33 0v666h265v-666h-265zM66 33h199v600h-199v-600z" />
    <glyph glyph-name=".notdef" unicode="&#xd5;" 
d="M33 0v666h265v-666h-265zM66 33h199v600h-199v-600z" />
    <glyph glyph-name=".notdef" unicode="&#xc3;" 
d="M33 0v666h265v-666h-265zM66 33h199v600h-199v-600z" />
    <glyph glyph-name=".notdef" unicode="&#xc0;" 
d="M33 0v666h265v-666h-265zM66 33h199v600h-199v-600z" />
    <glyph glyph-name=".notdef" unicode="&#xa0;" 
d="M33 0v666h265v-666h-265zM66 33h199v600h-199v-600z" />
    <glyph glyph-name=".notdef" unicode="&#x2026;" 
d="M33 0v666h265v-666h-265zM66 33h199v600h-199v-600z" />
    <glyph glyph-name=".notdef" unicode="&#xbb;" 
d="M33 0v666h265v-666h-265zM66 33h199v600h-199v-600z" />
    <glyph glyph-name=".notdef" unicode="&#xab;" 
d="M33 0v666h265v-666h-265zM66 33h199v600h-199v-600z" />
    <glyph glyph-name=".notdef" unicode="&#x2206;" 
d="M33 0v666h265v-666h-265zM66 33h199v600h-199v-600z" />
    <glyph glyph-name=".notdef" unicode="&#x2248;" 
d="M33 0v666h265v-666h-265zM66 33h199v600h-199v-600z" />
    <glyph glyph-name=".notdef" unicode="&#x192;" 
d="M33 0v666h265v-666h-265zM66 33h199v600h-199v-600z" />
    <glyph glyph-name=".notdef" unicode="&#x221a;" 
d="M33 0v666h265v-666h-265zM66 33h199v600h-199v-600z" />
    <glyph glyph-name=".notdef" unicode="&#xac;" 
d="M33 0v666h265v-666h-265zM66 33h199v600h-199v-600z" />
    <glyph glyph-name=".notdef" unicode="&#xa1;" 
d="M33 0v666h265v-666h-265zM66 33h199v600h-199v-600z" />
    <glyph glyph-name=".notdef" unicode="&#xbf;" 
d="M33 0v666h265v-666h-265zM66 33h199v600h-199v-600z" />
    <glyph glyph-name=".notdef" unicode="&#xf8;" 
d="M33 0v666h265v-666h-265zM66 33h199v600h-199v-600z" />
    <glyph glyph-name=".notdef" unicode="&#xe6;" 
d="M33 0v666h265v-666h-265zM66 33h199v600h-199v-600z" />
    <glyph glyph-name=".notdef" unicode="&#x2126;" 
d="M33 0v666h265v-666h-265zM66 33h199v600h-199v-600z" />
    <glyph glyph-name=".notdef" unicode="&#xba;" 
d="M33 0v666h265v-666h-265zM66 33h199v600h-199v-600z" />
    <glyph glyph-name=".notdef" unicode="&#xaa;" 
d="M33 0v666h265v-666h-265zM66 33h199v600h-199v-600z" />
    <glyph glyph-name=".notdef" unicode="&#x222b;" 
d="M33 0v666h265v-666h-265zM66 33h199v600h-199v-600z" />
    <glyph glyph-name=".notdef" unicode="&#x3c0;" 
d="M33 0v666h265v-666h-265zM66 33h199v600h-199v-600z" />
    <glyph glyph-name=".notdef" unicode="&#x220f;" 
d="M33 0v666h265v-666h-265zM66 33h199v600h-199v-600z" />
    <glyph glyph-name=".notdef" unicode="&#x2211;" 
d="M33 0v666h265v-666h-265zM66 33h199v600h-199v-600z" />
    <glyph glyph-name=".notdef" unicode="&#x2202;" 
d="M33 0v666h265v-666h-265zM66 33h199v600h-199v-600z" />
    <glyph glyph-name=".notdef" unicode="&#xb5;" 
d="M33 0v666h265v-666h-265zM66 33h199v600h-199v-600z" />
    <glyph glyph-name=".notdef" unicode="&#xa5;" 
d="M33 0v666h265v-666h-265zM66 33h199v600h-199v-600z" />
    <glyph glyph-name=".notdef" unicode="&#x2265;" 
d="M33 0v666h265v-666h-265zM66 33h199v600h-199v-600z" />
    <glyph glyph-name=".notdef" unicode="&#x2264;" 
d="M33 0v666h265v-666h-265zM66 33h199v600h-199v-600z" />
    <glyph glyph-name=".notdef" unicode="&#xb1;" 
d="M33 0v666h265v-666h-265zM66 33h199v600h-199v-600z" />
    <glyph glyph-name=".notdef" unicode="&#x221e;" 
d="M33 0v666h265v-666h-265zM66 33h199v600h-199v-600z" />
    <glyph glyph-name=".notdef" unicode="&#xd8;" 
d="M33 0v666h265v-666h-265zM66 33h199v600h-199v-600z" />
    <glyph glyph-name=".notdef" unicode="&#xc6;" 
d="M33 0v666h265v-666h-265zM66 33h199v600h-199v-600z" />
    <glyph glyph-name=".notdef" unicode="&#x2260;" 
d="M33 0v666h265v-666h-265zM66 33h199v600h-199v-600z" />
    <glyph glyph-name=".notdef" unicode="&#xa8;" 
d="M33 0v666h265v-666h-265zM66 33h199v600h-199v-600z" />
    <glyph glyph-name=".notdef" unicode="&#xb4;" 
d="M33 0v666h265v-666h-265zM66 33h199v600h-199v-600z" />
    <glyph glyph-name=".notdef" unicode="&#x2122;" 
d="M33 0v666h265v-666h-265zM66 33h199v600h-199v-600z" />
    <glyph glyph-name=".notdef" unicode="&#xa9;" 
d="M33 0v666h265v-666h-265zM66 33h199v600h-199v-600z" />
    <glyph glyph-name=".notdef" unicode="&#xae;" 
d="M33 0v666h265v-666h-265zM66 33h199v600h-199v-600z" />
    <glyph glyph-name=".notdef" unicode="&#xdf;" 
d="M33 0v666h265v-666h-265zM66 33h199v600h-199v-600z" />
    <glyph glyph-name=".notdef" unicode="&#xb6;" 
d="M33 0v666h265v-666h-265zM66 33h199v600h-199v-600z" />
    <glyph glyph-name=".notdef" unicode="&#x2022;" 
d="M33 0v666h265v-666h-265zM66 33h199v600h-199v-600z" />
    <glyph glyph-name=".notdef" unicode="&#xa7;" 
d="M33 0v666h265v-666h-265zM66 33h199v600h-199v-600z" />
    <glyph glyph-name=".notdef" unicode="&#xa3;" 
d="M33 0v666h265v-666h-265zM66 33h199v600h-199v-600z" />
    <glyph glyph-name=".notdef" unicode="&#xa2;" 
d="M33 0v666h265v-666h-265zM66 33h199v600h-199v-600z" />
    <glyph glyph-name=".notdef" unicode="&#xb0;" 
d="M33 0v666h265v-666h-265zM66 33h199v600h-199v-600z" />
    <glyph glyph-name=".notdef" unicode="&#x2020;" 
d="M33 0v666h265v-666h-265zM66 33h199v600h-199v-600z" />
    <glyph glyph-name=".notdef" unicode="&#xfc;" 
d="M33 0v666h265v-666h-265zM66 33h199v600h-199v-600z" />
    <glyph glyph-name=".notdef" unicode="&#xfb;" 
d="M33 0v666h265v-666h-265zM66 33h199v600h-199v-600z" />
    <glyph glyph-name=".notdef" unicode="&#xf9;" 
d="M33 0v666h265v-666h-265zM66 33h199v600h-199v-600z" />
    <glyph glyph-name=".notdef" unicode="&#xfa;" 
d="M33 0v666h265v-666h-265zM66 33h199v600h-199v-600z" />
    <glyph glyph-name=".notdef" unicode="&#xf5;" 
d="M33 0v666h265v-666h-265zM66 33h199v600h-199v-600z" />
    <glyph glyph-name=".notdef" unicode="&#xf6;" 
d="M33 0v666h265v-666h-265zM66 33h199v600h-199v-600z" />
    <glyph glyph-name=".notdef" unicode="&#xf4;" 
d="M33 0v666h265v-666h-265zM66 33h199v600h-199v-600z" />
    <glyph glyph-name=".notdef" unicode="&#xf2;" 
d="M33 0v666h265v-666h-265zM66 33h199v600h-199v-600z" />
    <glyph glyph-name=".notdef" unicode="&#xf3;" 
d="M33 0v666h265v-666h-265zM66 33h199v600h-199v-600z" />
    <glyph glyph-name=".notdef" unicode="&#xf1;" 
d="M33 0v666h265v-666h-265zM66 33h199v600h-199v-600z" />
    <glyph glyph-name=".notdef" unicode="&#xef;" 
d="M33 0v666h265v-666h-265zM66 33h199v600h-199v-600z" />
    <glyph glyph-name=".notdef" unicode="&#xee;" 
d="M33 0v666h265v-666h-265zM66 33h199v600h-199v-600z" />
    <glyph glyph-name=".notdef" unicode="&#xec;" 
d="M33 0v666h265v-666h-265zM66 33h199v600h-199v-600z" />
    <glyph glyph-name=".notdef" unicode="&#xed;" 
d="M33 0v666h265v-666h-265zM66 33h199v600h-199v-600z" />
    <glyph glyph-name=".notdef" unicode="&#xeb;" 
d="M33 0v666h265v-666h-265zM66 33h199v600h-199v-600z" />
    <glyph glyph-name=".notdef" unicode="&#xea;" 
d="M33 0v666h265v-666h-265zM66 33h199v600h-199v-600z" />
    <glyph glyph-name=".notdef" unicode="&#xe8;" 
d="M33 0v666h265v-666h-265zM66 33h199v600h-199v-600z" />
    <glyph glyph-name=".notdef" unicode="&#xe9;" 
d="M33 0v666h265v-666h-265zM66 33h199v600h-199v-600z" />
    <glyph glyph-name=".notdef" unicode="&#xe7;" 
d="M33 0v666h265v-666h-265zM66 33h199v600h-199v-600z" />
    <glyph glyph-name=".notdef" unicode="&#xe5;" 
d="M33 0v666h265v-666h-265zM66 33h199v600h-199v-600z" />
    <glyph glyph-name=".notdef" unicode="&#xe3;" 
d="M33 0v666h265v-666h-265zM66 33h199v600h-199v-600z" />
    <glyph glyph-name=".notdef" unicode="&#xe4;" 
d="M33 0v666h265v-666h-265zM66 33h199v600h-199v-600z" />
    <glyph glyph-name=".notdef" unicode="&#xe2;" 
d="M33 0v666h265v-666h-265zM66 33h199v600h-199v-600z" />
    <glyph glyph-name=".notdef" unicode="&#xe0;" 
d="M33 0v666h265v-666h-265zM66 33h199v600h-199v-600z" />
    <glyph glyph-name=".notdef" unicode="&#xe1;" 
d="M33 0v666h265v-666h-265zM66 33h199v600h-199v-600z" />
    <glyph glyph-name=".notdef" unicode="&#xdc;" 
d="M33 0v666h265v-666h-265zM66 33h199v600h-199v-600z" />
    <glyph glyph-name=".notdef" unicode="&#xd6;" 
d="M33 0v666h265v-666h-265zM66 33h199v600h-199v-600z" />
    <glyph glyph-name=".notdef" unicode="&#xd1;" 
d="M33 0v666h265v-666h-265zM66 33h199v600h-199v-600z" />
    <glyph glyph-name=".notdef" unicode="&#xc9;" 
d="M33 0v666h265v-666h-265zM66 33h199v600h-199v-600z" />
    <glyph glyph-name=".notdef" unicode="&#xc7;" 
d="M33 0v666h265v-666h-265zM66 33h199v600h-199v-600z" />
    <glyph glyph-name=".notdef" unicode="&#xc5;" 
d="M33 0v666h265v-666h-265zM66 33h199v600h-199v-600z" />
    <glyph glyph-name=".notdef" unicode="&#xc4;" 
d="M33 0v666h265v-666h-265zM66 33h199v600h-199v-600z" />
    <glyph glyph-name=".notdef" 
d="M33 0v666h265v-666h-265zM66 33h199v600h-199v-600z" />
    <glyph glyph-name=".notdef" unicode="~" 
d="M33 0v666h265v-666h-265zM66 33h199v600h-199v-600z" />
    <glyph glyph-name=".notdef" unicode="}" 
d="M33 0v666h265v-666h-265zM66 33h199v600h-199v-600z" />
    <glyph glyph-name=".notdef" unicode="|" 
d="M33 0v666h265v-666h-265zM66 33h199v600h-199v-600z" />
    <glyph glyph-name=".notdef" unicode="{" 
d="M33 0v666h265v-666h-265zM66 33h199v600h-199v-600z" />
    <glyph glyph-name=".notdef" unicode="`" 
d="M33 0v666h265v-666h-265zM66 33h199v600h-199v-600z" />
    <glyph glyph-name=".notdef" unicode="_" 
d="M33 0v666h265v-666h-265zM66 33h199v600h-199v-600z" />
    <glyph glyph-name=".notdef" unicode="^" 
d="M33 0v666h265v-666h-265zM66 33h199v600h-199v-600z" />
    <glyph glyph-name=".notdef" unicode=";" 
d="M33 0v666h265v-666h-265zM66 33h199v600h-199v-600z" />
    <glyph glyph-name=".notdef" unicode=":" 
d="M33 0v666h265v-666h-265zM66 33h199v600h-199v-600z" />
    <glyph glyph-name=".notdef" unicode="/" 
d="M33 0v666h265v-666h-265zM66 33h199v600h-199v-600z" />
    <glyph glyph-name=".notdef" unicode="." 
d="M33 0v666h265v-666h-265zM66 33h199v600h-199v-600z" />
    <glyph glyph-name=".notdef" unicode="-" 
d="M33 0v666h265v-666h-265zM66 33h199v600h-199v-600z" />
    <glyph glyph-name=".notdef" unicode="'" 
d="M33 0v666h265v-666h-265zM66 33h199v600h-199v-600z" />
    <glyph glyph-name=".notdef" unicode="&#x26;" 
d="M33 0v666h265v-666h-265zM66 33h199v600h-199v-600z" />
    <glyph glyph-name=".notdef" unicode="%" 
d="M33 0v666h265v-666h-265zM66 33h199v600h-199v-600z" />
    <glyph glyph-name=".notdef" unicode="$" 
d="M33 0v666h265v-666h-265zM66 33h199v600h-199v-600z" />
    <glyph glyph-name=".notdef" unicode=" " 
d="M33 0v666h265v-666h-265zM66 33h199v600h-199v-600z" />
    <glyph glyph-name=".notdef" 
d="M33 0v666h265v-666h-265zM66 33h199v600h-199v-600z" />
    <glyph glyph-name=".notdef" 
d="M33 0v666h265v-666h-265zM66 33h199v600h-199v-600z" />
    <glyph glyph-name=".notdef" 
d="M33 0v666h265v-666h-265zM66 33h199v600h-199v-600z" />
    <glyph glyph-name=".notdef" 
d="M33 0v666h265v-666h-265zM66 33h199v600h-199v-600z" />
    <glyph glyph-name=".notdef" 
d="M33 0v666h265v-666h-265zM66 33h199v600h-199v-600z" />
    <glyph glyph-name=".notdef" 
d="M33 0v666h265v-666h-265zM66 33h199v600h-199v-600z" />
    <glyph glyph-name=".notdef" 
d="M33 0v666h265v-666h-265zM66 33h199v600h-199v-600z" />
    <glyph glyph-name=".notdef" 
d="M33 0v666h265v-666h-265zM66 33h199v600h-199v-600z" />
    <glyph glyph-name=".notdef" 
d="M33 0v666h265v-666h-265zM66 33h199v600h-199v-600z" />
    <glyph glyph-name=".notdef" 
d="M33 0v666h265v-666h-265zM66 33h199v600h-199v-600z" />
    <glyph glyph-name=".notdef" 
d="M33 0v666h265v-666h-265zM66 33h199v600h-199v-600z" />
    <glyph glyph-name=".notdef" 
d="M33 0v666h265v-666h-265zM66 33h199v600h-199v-600z" />
    <glyph glyph-name=".notdef" 
d="M33 0v666h265v-666h-265zM66 33h199v600h-199v-600z" />
    <glyph glyph-name=".notdef" 
d="M33 0v666h265v-666h-265zM66 33h199v600h-199v-600z" />
    <glyph glyph-name=".notdef" 
d="M33 0v666h265v-666h-265zM66 33h199v600h-199v-600z" />
    <glyph glyph-name=".notdef" 
d="M33 0v666h265v-666h-265zM66 33h199v600h-199v-600z" />
    <glyph glyph-name=".notdef" 
d="M33 0v666h265v-666h-265zM66 33h199v600h-199v-600z" />
    <glyph glyph-name=".notdef" 
d="M33 0v666h265v-666h-265zM66 33h199v600h-199v-600z" />
    <glyph glyph-name=".notdef" 
d="M33 0v666h265v-666h-265zM66 33h199v600h-199v-600z" />
    <glyph glyph-name=".notdef" unicode="&#xa;" 
d="M33 0v666h265v-666h-265zM66 33h199v600h-199v-600z" />
    <glyph glyph-name=".notdef" 
d="M33 0v666h265v-666h-265zM66 33h199v600h-199v-600z" />
    <glyph glyph-name=".notdef" 
d="M33 0v666h265v-666h-265zM66 33h199v600h-199v-600z" />
    <glyph glyph-name=".notdef" 
d="M33 0v666h265v-666h-265zM66 33h199v600h-199v-600z" />
    <glyph glyph-name=".notdef" 
d="M33 0v666h265v-666h-265zM66 33h199v600h-199v-600z" />
    <glyph glyph-name=".notdef" 
d="M33 0v666h265v-666h-265zM66 33h199v600h-199v-600z" />
    <glyph glyph-name=".notdef" 
d="M33 0v666h265v-666h-265zM66 33h199v600h-199v-600z" />
    <glyph glyph-name=".notdef" 
d="M33 0v666h265v-666h-265zM66 33h199v600h-199v-600z" />
    <glyph glyph-name=".null" unicode="&#xf008;" horiz-adv-x="0" 
 />
    <glyph glyph-name=".null" horiz-adv-x="0" 
 />
    <glyph glyph-name=".null" horiz-adv-x="0" 
 />
    <glyph glyph-name="nonmarkingreturn" unicode="&#xf009;" 
 />
    <glyph glyph-name="nonmarkingreturn" unicode="&#x9;" 
 />
    <glyph glyph-name="exclam" unicode="!" 
d="M115 300q0 105 51.5 193.5t140 140t193.5 51.5t193.5 -51.5t140 -140t51.5 -193.5t-51.5 -193.5t-140 -140t-193.5 -51.5t-193.5 51.5t-140 140t-51.5 193.5zM52 300q0 -91 35.5 -174t95.5 -143t143 -95.5t174 -35.5t174 35.5t143 95.5t95.5 143t35.5 174t-35.5 174
t-95.5 143t-143 95.5t-174 35.5t-174 -35.5t-143 -95.5t-95.5 -143t-35.5 -174zM531 550q0 13 -9 22t-22 9t-22 -9t-9 -22v-250q0 -19 17 -28l167 -83q16 -8 30.5 1.5t14.5 26.5q0 19 -17 28l-150 74v231z" />
    <glyph glyph-name="quotedbl" unicode="&#x22;" 
d="M750 352q73 0 125 -52t52 -125t-52 -125t-125 -52h-378q-124 1 -211.5 89.5t-87.5 212.5q0 125 88.5 213.5t213.5 88.5q104 0 185.5 -64t106.5 -162q3 -11 11.5 -17.5t19.5 -6.5h52zM990 175q0 99 -70.5 169.5t-169.5 70.5h-29q-37 110 -132 179.5t-214 69.5
q-99 0 -183 -48.5t-133 -132.5t-49 -183t49 -183t133 -133t183 -49h375q99 0 169.5 70.5t70.5 169.5z" />
    <glyph glyph-name="numbersign" unicode="#" 
d="M792 -44h-584q-21 0 -36.5 15.5t-15.5 36.5v584q0 21 15.5 36.5t36.5 15.5h446l190 -190v-446q0 -21 -15.5 -36.5t-36.5 -15.5zM792 -106q47 0 80.5 33.5t33.5 80.5v459q0 13 -9 22l-208 208q-9 9 -22 9h-459q-47 0 -80.5 -33.5t-33.5 -80.5v-584q0 -47 33.5 -80.5
t80.5 -33.5h584zM677 -75q0 -13 9 -22t22 -9t22.5 9t9.5 22v333q0 13 -9.5 22.5t-22.5 9.5h-416q-13 0 -22.5 -9.5t-9.5 -22.5v-333q0 -13 9.5 -22t22.5 -9t22 9t9 22v302h354v-302zM323 498v177q0 13 -9 22t-22 9t-22.5 -9t-9.5 -22v-208q0 -13 9.5 -22.5t22.5 -9.5h333
q13 0 22 9.5t9 22.5t-9 22t-22 9h-302z" />
    <glyph glyph-name="parenleft" unicode="(" 
d="M115 394h135q11 0 20 7l157 126v-454l-157 126q-9 7 -20 7h-135v188zM458 -23q13 0 22.5 9t9.5 22v584q0 13 -9.5 22t-22.5 9q-11 0 -19 -7l-200 -160h-156q-13 0 -22 -9t-9 -22v-250q0 -13 9 -22t22 -9h156l200 -160q8 -7 19 -7zM990 425q0 13 -9.5 22t-22.5 9t-22 -9
l-250 -250q-9 -9 -9 -22t9 -22t22 -9t22 9l250 250q10 9 10 22zM708 456q-13 0 -22 -9t-9 -22t9 -22l250 -250q9 -9 22 -9t22.5 9t9.5 22t-10 22l-250 250q-9 9 -22 9z" />
    <glyph glyph-name="parenright" unicode=")" 
d="M115 394h135q11 0 20 7l157 126v-454l-157 126q-9 7 -20 7h-135v188zM458 -23q13 0 22.5 9t9.5 22v584q0 13 -9.5 22t-22.5 9q-11 0 -19 -7l-200 -160h-156q-13 0 -22 -9t-9 -22v-250q0 -13 9 -22t22 -9h156l200 -160q8 -7 19 -7z" />
    <glyph glyph-name="asterisk" unicode="*" 
d="M322 563v-322h-47v322h47zM872 556q83 -230 113 -315h-50l-88 244l-88 -244h-50q17 48 57 159.5t56 155.5q2 6 3 7h45q0 -1 1 -4zM49 564v-275h160v-48h-184q-10 0 -16.5 7t-6.5 17v299h47zM847 370q10 0 17 -7t7 -17t-7 -17t-17 -7t-17 7t-7 17t7 17t17 7zM664 563v-7
v-315h-47v204l-65 -145l-4 -9l-0.5 -0.5l-0.5 -0.5q-4 -9 -13 -13q-4 -1 -8 -1t-7 1q-10 4 -14 13l-1 1l-4 9l-65 145v-204h-47v315v7h46l92 -205l92 205h46z" />
    <glyph glyph-name="plus" unicode="+" 
d="M115 394h135q11 0 20 7l157 126v-454l-157 126q-9 7 -20 7h-135v188zM458 -23q13 0 22.5 9t9.5 22v584q0 13 -9.5 22t-22.5 9q-11 0 -19 -7l-200 -160h-156q-13 0 -22 -9t-9 -22v-250q0 -13 9 -22t22 -9h156l200 -160q8 -7 19 -7zM647.5 479q-12.5 0 -22 -9.5t-9.5 -22
t9 -22.5q52 -52 52 -125t-52 -125q-9 -9 -9 -22t9.5 -22t22 -9t22.5 9q70 70 70 169t-70 170q-10 9 -22.5 9z" />
    <glyph glyph-name="comma" unicode="," 
d="M115 394h135q11 0 20 7l157 126v-454l-157 126q-9 7 -20 7h-135v188zM458 -23q13 0 22.5 9t9.5 22v584q0 13 -9.5 22t-22.5 9q-11 0 -19 -7l-200 -160h-156q-13 0 -22 -9t-9 -22v-250q0 -13 9 -22t22 -9h156l200 -160q8 -7 19 -7zM647.5 479q-12.5 0 -22 -9.5t-9.5 -22
t9 -22.5q52 -52 52 -125t-52 -125q-9 -9 -9 -22t9.5 -22t22 -9t22.5 9q70 70 70 169t-70 170q-10 9 -22.5 9zM795 626q-13 0 -22.5 -9t-9.5 -22t9 -22q54 -54 83.5 -124.5t29.5 -148.5t-29.5 -148.5t-83.5 -124.5q-9 -9 -9 -22t9.5 -22t22.5 -9t22 9q62 62 96.5 144
t34.5 173t-34.5 173t-96.5 144q-9 9 -22 9z" />
    <glyph glyph-name="zero" unicode="0" 
d="M635 50q0 -13 9.5 -22t22.5 -9t22 9l250 250q9 9 9 22t-9 22l-250 250q-9 9 -22 9t-22.5 -9t-9.5 -22t10 -22l227 -228l-227 -228q-10 -9 -10 -22zM365 550q0 13 -9.5 22t-22.5 9t-22 -9l-250 -250q-9 -9 -9 -22t9 -22l250 -250q9 -9 22 -9t22.5 9t9.5 22t-10 22
l-227 228l227 228q10 9 10 22z" />
    <glyph glyph-name="one" unicode="1" 
d="M865 550q0 13 -9.5 22t-22.5 9t-22 -9l-436 -436l-186 186q-9 9 -22 9t-22.5 -9t-9.5 -22t10 -22l208 -208q9 -9 22 -9t22 9l458 458q10 9 10 22z" />
    <glyph glyph-name="two" unicode="2" 
d="M115 300q0 105 51.5 193.5t140 140t193.5 51.5t193.5 -51.5t140 -140t51.5 -193.5t-51.5 -193.5t-140 -140t-193.5 -51.5t-193.5 51.5t-140 140t-51.5 193.5zM52 300q0 -91 35.5 -174t95.5 -143t143 -95.5t174 -35.5t174 35.5t143 95.5t95.5 143t35.5 174t-35.5 174
t-95.5 143t-143 95.5t-174 35.5t-174 -35.5t-143 -95.5t-95.5 -143t-35.5 -174zM205 626q-13 0 -22 -9t-9 -22t9 -22l590 -590q9 -9 22 -9t22 9t9 22t-9 22l-590 590q-9 9 -22 9z" />
    <glyph glyph-name="three" unicode="3" 
d="M552 281v-305l-104 52v253q0 11 -7 20l-290 343h698l-290 -343q-7 -9 -7 -20zM917 706h-834q-13 0 -22 -9t-9 -22q0 -11 7 -20l326 -386v-261q0 -19 18 -28l166 -83q16 -8 31 1.5t15 26.5v344l326 386q7 9 7 20q0 13 -9 22t-22 9z" />
    <glyph glyph-name="four" unicode="4" 
d="M667 665q-13 0 -22.5 -9.5t-9.5 -22.5t9.5 -22t22.5 -9h83q22 0 37 -15t15 -37v-583q0 -22 -15 -37t-37 -15h-500q-22 0 -37 15t-15 37v583q0 22 15 37t37 15h83q13 0 22.5 9t9.5 22t-9.5 22.5t-22.5 9.5h-83q-47 0 -81 -34t-34 -81v-583q0 -48 34 -81.5t81 -33.5h500
q47 0 81 33.5t34 81.5v583q0 47 -34 81t-81 34h-83zM365 581v52.5v51.5h270v-51.5v-52.5h-270zM302 675v-83q0 -25 2 -34q4 -21 20 -31q9 -6 24 -7q7 -1 27 -1h250q20 0 27 1q15 1 24 7q16 10 20 31q2 9 2 34v83q0 25 -2 34q-4 20 -20 30q-9 7 -24 8q-7 1 -27 1h-250
q-20 0 -27 -1q-15 -1 -24 -8q-16 -10 -20 -30q-2 -9 -2 -34z" />
    <glyph glyph-name="five" unicode="5" 
d="M875 -67h-750q-48 0 -82.5 34t-34.5 83v500q0 48 34 82.5t83 34.5h750q48 0 82.5 -34t34.5 -83v-500q0 -47 -35 -82t-82 -35zM125 600q-22 0 -36 -14t-14 -36v-500q0 -21 15.5 -35.5t34.5 -14.5h750q21 0 35.5 15.5t14.5 34.5v500q0 21 -15.5 35.5t-34.5 14.5h-750z
M958 350h-916q-14 0 -24 9t-10 24t10 22t24 7h916q14 0 24 -9t10 -24q0 -14 -10 -21.5t-24 -7.5z" />
    <glyph glyph-name="six" unicode="6" 
d="M458 602q13 0 22.5 9t9.5 22t-9.5 22.5t-22.5 9.5h-291q-48 0 -81.5 -34t-33.5 -81v-583q0 -48 33.5 -81.5t81.5 -33.5h583q47 0 81 33.5t34 81.5v291q0 13 -9.5 22.5t-22.5 9.5t-22 -9.5t-9 -22.5v-291q0 -22 -15 -37t-37 -15h-583q-22 0 -37 15t-15 37v583q0 22 15 37
t37 15h291zM833.5 691q23.5 0 40 -17t16.5 -40.5t-16 -40.5l-390 -390l-108 -27l27 108l390 390q17 17 40.5 17zM303 141q-4 -17 8 -29.5t30 -8.5l167 42q8 2 14 8l396 396q35 35 35 84.5t-35 84.5t-84.5 35t-84.5 -35l-396 -396q-6 -6 -8 -14z" />
    <glyph glyph-name="seven" unicode="7" 
d="M925 340q0 13 -9.5 22t-22.5 9t-22 -9l-383 -383q-64 -64 -154.5 -64t-154.5 64t-64 154.5t64 154.5l383 383q39 40 95.5 40t96 -39.5t39.5 -96t-40 -95.5l-383 -383q-15 -16 -36.5 -16t-37 15.5t-15.5 37t15 36.5l354 354q9 9 9 22t-9 22t-22 9t-22 -9l-354 -353
q-33 -34 -33 -81.5t33.5 -81t81 -33.5t80.5 33l384 383q57 58 57 140t-58 140t-139.5 58t-139.5 -58l-383 -382q-83 -83 -83 -199.5t82.5 -199t199 -82.5t199.5 83l382 382q10 10 10 23z" />
    <glyph glyph-name="eight" unicode="8" 
d="M531 758q0 13 -9 22.5t-22 9.5t-22 -9.5t-9 -22.5v-916q0 -13 9 -22.5t22 -9.5t22 9.5t9 22.5v916zM708 560q13 0 22.5 9.5t9.5 22.5t-9.5 22t-22.5 9h-312q-73 0 -125 -52t-52 -125t52 -125t125 -52h208q48 0 81.5 -33.5t33.5 -81t-33.5 -81t-81.5 -33.5h-354
q-13 0 -22 -9.5t-9 -22.5t9 -22t22 -9h354q73 0 125 52t52 125t-52 125t-125 52h-208q-48 0 -81.5 33.5t-33.5 81t33.5 81t81.5 33.5h312z" />
    <glyph glyph-name="nine" unicode="9" 
d="M167 602h666q22 0 37 -15.5t15 -36.5v-500q0 -21 -15 -36.5t-37 -15.5h-666q-22 0 -37 15.5t-15 36.5v500q0 21 15 36.5t37 15.5zM167 665q-48 0 -81.5 -34t-33.5 -81v-500q0 -47 33.5 -81t81.5 -34h666q48 0 81.5 34t33.5 81v500q0 47 -33.5 81t-81.5 34h-666zM948 550
q0 13 -9 22t-22 9q-10 0 -18 -5l-399 -280l-399 280q-8 5 -18 5q-13 0 -22 -9t-9 -22q0 -16 13 -26l417 -291q18 -13 36 0l417 291q13 10 13 26z" />
    <glyph glyph-name="less" unicode="&#x3c;" 
d="M323 300q0 73 52 125t125 52t125 -52t52 -125t-52 -125t-125 -52t-125 52t-52 125zM260 300q0 -99 70.5 -169.5t169.5 -70.5t169.5 70.5t70.5 169.5t-70.5 169.5t-169.5 70.5t-169.5 -70.5t-70.5 -169.5zM531 758q0 13 -9 22.5t-22 9.5t-22 -9.5t-9 -22.5v-83
q0 -13 9 -22t22 -9t22 9t9 22v83zM531 -75q0 13 -9 22t-22 9t-22 -9t-9 -22v-83q0 -13 9 -22.5t22 -9.5t22 9.5t9 22.5v83zM176 655q-13 0 -22 -9t-9 -22t9 -22l59 -59q9 -9 22 -9t22 9t9 22t-9 22l-59 59q-9 9 -22 9zM765 66q-13 0 -22 -9t-9 -22t9 -22l59 -59q9 -9 22 -9
t22 9t9 22t-9 22l-59 59q-9 9 -22 9zM42 331q-13 0 -22.5 -9t-9.5 -22t9.5 -22t22.5 -9h83q13 0 22 9t9 22t-9 22t-22 9h-83zM875 331q-13 0 -22 -9t-9 -22t9 -22t22 -9h83q13 0 22.5 9t9.5 22t-9.5 22t-22.5 9h-83zM145 -24q0 -13 9 -22t22 -9t22 9l59 59q9 9 9 22t-9 22
t-22 9t-22 -9l-59 -59q-9 -9 -9 -22zM734 565q0 -13 9 -22t22 -9t22 9l59 59q9 9 9 22t-9 22t-22 9t-22 -9l-59 -59q-9 -9 -9 -22z" />
    <glyph glyph-name="equal" unicode="=" 
d="M552 425q0 -13 9 -22t22 -9h238q23 -1 38.5 -18.5t12.5 -41.5l-58 -375q-3 -19 -17.5 -31.5t-34.5 -12.5h-439v420l155 348q32 -6 53 -32t21 -59v-167zM615 592q0 64 -46 110t-111 46q-20 0 -28 -19l-159 -356h-104q-48 0 -81.5 -33.5t-33.5 -81.5v-291q0 -48 33.5 -81.5
t81.5 -33.5h596q42 0 74.5 28t38.5 69l57 376q2 8 2 17q0 47 -33.5 80.5t-81.5 33.5h-205v136zM260 -85h-93q-22 0 -37 15t-15 37v291q0 22 15 37t37 15h93v-395z" />
    <glyph glyph-name="greater" unicode="&#x3e;" 
d="M702 179q68 0 130 27q-32 -109 -123 -178.5t-207 -69.5q-94 0 -173 46t-125 125.5t-46 172.5q0 116 69.5 207t178.5 123q-27 -62 -27 -130q0 -88 43 -162.5t117.5 -117.5t162.5 -43zM702 241q-108 0 -184.5 76.5t-76.5 184.5q0 86 51 154q6 9 6 19q0 13 -9.5 22t-24.5 9
q-102 -9 -186.5 -65t-133.5 -145.5t-49 -193.5q0 -110 54.5 -204t148 -148t204.5 -54q104 0 193.5 48.5t145.5 134t65 188.5q0 13 -9 22t-22 9q-10 0 -19 -6q-68 -51 -154 -51z" />
    <glyph glyph-name="question" unicode="?" 
d="M469 92q0 -13 9 -22.5t22 -9.5t22.5 9.5t9.5 22.5t-9.5 22t-22.5 9t-22 -9t-9 -22zM349 435q-5 -15 4.5 -28t25.5 -13q22 0 29 21q10 27 34 44.5t55 17.5q38 0 65.5 -27t27.5 -67q0 -31 -39 -61q-14 -10 -30 -18.5t-25 -12.5l-9 -3q-22 -7 -22 -30q0 -15 13 -25t29 -4
q43 14 81 43q63 47 65 112q0 64 -46 110t-110 46q-51 0 -91 -29t-57 -76zM115 300q0 105 51.5 193.5t140 140t193.5 51.5t193.5 -51.5t140 -140t51.5 -193.5t-51.5 -193.5t-140 -140t-193.5 -51.5t-193.5 51.5t-140 140t-51.5 193.5zM52 300q0 -91 35.5 -174t95.5 -143
t143 -95.5t174 -35.5t174 35.5t143 95.5t95.5 143t35.5 174t-35.5 174t-95.5 143t-143 95.5t-174 35.5t-174 -35.5t-143 -95.5t-95.5 -143t-35.5 -174z" />
    <glyph glyph-name="at" unicode="@" 
d="M698 467q0 13 -9 22t-22 9t-22.5 -9t-9.5 -22v-209q0 -64 46 -110t110.5 -46t110.5 46t46 110v42q0 91 -35.5 174t-95.5 143t-143 95.5t-174 35.5t-174 -35.5t-143 -95.5t-95.5 -143t-35.5 -174t35.5 -174t95.5 -143t143 -95.5t174 -35.5q152 0 272 92q13 10 13 25
q0 13 -9.5 22t-22.5 9q-10 0 -19 -6q-103 -79 -234 -79q-105 0 -193.5 51.5t-140 140t-51.5 193.5t51.5 193.5t140 140t193.5 51.5t193.5 -51.5t140 -140t51.5 -193.5v-42q0 -38 -27.5 -65.5t-66 -27.5t-66 27.5t-27.5 65.5v209zM365 300q0 56 39.5 95.5t95.5 39.5
t95.5 -39.5t39.5 -95.5t-39.5 -95.5t-95.5 -39.5t-95.5 39.5t-39.5 95.5zM302 300q0 -82 58 -140t140 -58t140 58t58 140t-58 140t-140 58t-140 -58t-58 -140z" />
    <glyph glyph-name="A" unicode="A" 
d="M983 403q7 -49 1 -117.5t-17 -106.5l-18 -53q0 -2 -1.5 -5t-1.5 -5q-11 -28 -15 -41q-25 -80 -27 -106q-79 36 -105 57q-51 41 -82 91q-8 12 -16 26q-2 6 -5 13q-25 -45 -55 -81q-37 -46 -89 -85q-27 -20 -51 -34q-27 -17 -54 -30q-60 -29 -115 -41q-35 -8 -63 -8
q-17 0 -31 3q-7 1 -19 5q-7 2 -11 3q-20 5 -39 5q-9 0 -18 -1q-10 -1 -27 -7q-2 -1 -5 -2q-16 -6 -26 -8h-7q-6 0 -11 1q-9 2 -17 8q-15 10 -23 25q-7 12 -10 32q-2 16 -2 31v24q1 24 0 36q-2 14 -6 28q-1 5 -4 14t-4 15q-6 24 -8 62q-2 28 0 61q4 64 21 121q18 62 50 112
q34 51 81 92q93 81 217 112q59 15 114 15h8q33 0 62 -7q30 -7 53 -19l6 7q17 24 63 85q30 39 34 44l19 26l17 -27q8 -13 15 -29l1 -1v-1q0 -9 -4 -17q-2 -4 -6 -9l-1 -1l-1 -1q0 -1 1 -2q1 -4 4 -9q11 -18 32 -29l12 -6q6 -3 13 -7q13 -8 25 -16q24 -17 45 -37
q43 -42 69 -94l12 -26q4 -12 9 -28q8 -28 11 -57zM273 -80q22 0 50 6q46 9 108 35q26 12 51 26q13 8 25 15q13 9 24 16q97 67 150 167l-5 24q-3 11 -5 21q-14 56 -15 121q-1 64 9 121q6 33 14 60l3 9q0 1 1 1q-6 10 -13 18q-16 23 -37 40l-1 1q-3 2 -6 5t-7 6q-8 6 -15 10
q-23 13 -54 20q-27 6 -58 6h-6q-52 0 -112 -16q-116 -32 -204 -114q-43 -41 -72 -89q-28 -47 -43 -105q-14 -55 -15 -114q-1 -26 1 -57q1 -15 3 -28q2 -15 5 -25q1 -4 4 -11q4 -12 5 -18q5 -17 8 -34q1 -8 1 -18v-18v-2q-1 -17 -1 -26q1 -12 3 -25q2 -12 5 -17v-1q1 -2 4 -5
q2 -2 5 -4l2 -1h1h1v0q6 0 22 7q8 3 17 5q4 1 9 2l6 1l4 1q11 2 22 2q26 0 52 -8q5 -1 13 -4q10 -3 14 -3q9 -2 24 -3h3zM667 589q9 -10 16 -19q3 -4 7 -9v1l4 8l3 6q2 5 4 12q9 26 9 51q0 12 -2 26q0 1 -1 4q-4 -6 -8 -13q-11 -20 -25 -51zM812 42q39 -35 86 -62
q2 51 14 100q3 16 13 48q12 38 16 58q5 22 9 53t4 53q2 59 -6 106q-4 27 -12 51q-4 14 -8 25q-5 11 -12 23q-25 46 -63 81q-18 18 -40 33q-11 7 -22 13q-6 4 -11 6l-12 6q-8 4 -15 9v-6q0 -33 -12 -65q-3 -8 -6 -15q-1 -1 -4 -8l-3 -6v-1q-4 -7 -5 -11q-1 -2 -2 -5
q-2 -5 -3 -8q-8 -24 -14 -55q-11 -55 -11 -114q-1 -61 9 -114q6 -30 15 -55q1 -2 3 -9q4 -11 7 -17q7 -14 13 -25q25 -45 72 -89zM273.5 -44q0.5 -5 -3 -8.5t-8 -3.5t-8.5 3t-4 8t3 8.5t8 4t8.5 -3t4 -8.5zM304.5 -5.5q0.5 -6.5 -4 -11t-10.5 -5t-11 4t-5 10.5t4 11t10 5
t11 -4t5.5 -10.5zM410 23.5q1 -11.5 -7 -20t-19.5 -9t-20 7t-9 19t7 20t19 9t20 -7t9.5 -19zM357.5 -23q0.5 -8 -5 -14t-13.5 -6.5t-14 5t-6.5 13.5t5 14t13.5 6.5t14 -5t6.5 -13.5z" />
    <glyph glyph-name="B" unicode="B" 
d="M281 467q0 90 64 154t155 64t155 -64t64 -154q0 -173 55 -290q14 -29 31 -54h-610q17 25 31 54q55 117 55 290zM781 467q0 116 -82.5 198.5t-198.5 82.5t-198.5 -82.5t-82.5 -198.5q0 -159 -49 -263q-18 -38 -41 -65q-12 -15 -22 -21q-13 -10 -13 -26q0 -13 9 -22.5
t22 -9.5h750q13 0 22 9.5t9 22.5q0 16 -13 26q-10 6 -22 21q-23 27 -41 65q-49 104 -49 263zM599 -91q9 16 0 31.5t-27 15.5t-27 -15q-15 -26 -45 -26t-45 26q-9 15 -27 15t-27 -15.5t0 -31.5q15 -26 41.5 -41.5t57.5 -15.5t57.5 15.5t41.5 41.5z" />
    <glyph glyph-name="C" unicode="C" 
d="M377 32q-12 6 -24 2l-179 -60l60 179q4 12 -2 24q-34 67 -34 147q1 93 49.5 169.5t128.5 116.5q68 34 148 34h18q122 -7 208.5 -94t93.5 -210v-20q0 -76 -34 -143q-41 -81 -118.5 -130t-171.5 -49q-76 0 -143 34zM542 706h-13.5h-12.5q-89 -1 -167 -41
q-97 -48 -155.5 -140.5t-58.5 -203.5q0 -85 36 -161l-76 -225q-6 -18 7.5 -32t32.5 -8l225 76q76 -36 161 -36q111 0 203.5 58.5t140.5 154.5q41 81 41 173v22q-8 147 -113 251t-251 112z" />
    <glyph glyph-name="D" unicode="D" 
d="M792 269q13 0 22 9t9 22t-9 22t-22 9h-584q-13 0 -22 -9t-9 -22t9 -22t22 -9h584zM500 -23q13 0 22 9t9 22t-9 22l-269 270l269 270q9 9 9 22t-9 22t-22 9t-22 -9l-292 -292q-9 -9 -9 -22t9 -22l292 -292q9 -9 22 -9z" />
    <glyph glyph-name="E" unicode="E" 
d="M208 331q-13 0 -22 -9t-9 -22t9 -22t22 -9h584q13 0 22 9t9 22t-9 22t-22 9h-584zM500 623q-13 0 -22 -9t-9 -22t9 -22l269 -270l-269 -270q-9 -9 -9 -22t9 -22t22 -9t22 9l292 292q9 9 9 22t-9 22l-292 292q-9 9 -22 9z" />
    <glyph glyph-name="F" unicode="F" 
d="M115 300q0 105 51.5 193.5t140 140t193.5 51.5t193.5 -51.5t140 -140t51.5 -193.5t-51.5 -193.5t-140 -140t-193.5 -51.5t-193.5 51.5t-140 140t-51.5 193.5zM52 300q0 -91 35.5 -174t95.5 -143t143 -95.5t174 -35.5t174 35.5t143 95.5t95.5 143t35.5 174t-35.5 174
t-95.5 143t-143 95.5t-174 35.5t-174 -35.5t-143 -95.5t-95.5 -143t-35.5 -174zM469 133q0 -13 9 -22t22 -9t22 9t9 22v167q0 13 -9 22t-22 9t-22 -9t-9 -22v-167zM469 467q0 -13 9 -22.5t22 -9.5t22.5 9.5t9.5 22.5t-9.5 22t-22.5 9t-22 -9t-9 -22z" />
    <glyph glyph-name="G" unicode="G" 
d="M125 331q-13 0 -22 -9t-9 -22t9 -22t22 -9h750q13 0 22 9t9 22t-9 22t-22 9h-750zM125 581q-13 0 -22 -9t-9 -22t9 -22t22 -9h750q13 0 22 9t9 22t-9 22t-22 9h-750zM125 81q-13 0 -22 -9t-9 -22t9 -22t22 -9h750q13 0 22 9t9 22t-9 22t-22 9h-750z" />
    <glyph glyph-name="H" unicode="H" 
d="M500 -2q-153 0 -290 130q-79 76 -133 172q54 96 133 172q137 130 290 130t290 -130q79 -76 133 -172q-54 -96 -133 -172q-137 -130 -290 -130zM500 -65q178 0 333 148q44 43 84 96t51.5 73.5t17.5 33.5q7 14 0 28q-6 13 -17.5 33.5t-51.5 73.5t-84 96q-155 148 -333 148
t-333 -148q-44 -43 -84 -96t-51.5 -73.5t-17.5 -33.5q-7 -14 0 -28q6 -13 17.5 -33.5t51.5 -73.5t84 -96q155 -148 333 -148zM406 300q0 39 27.5 66.5t66.5 27.5t66.5 -27.5t27.5 -66.5t-27.5 -66.5t-66.5 -27.5t-66.5 27.5t-27.5 66.5zM344 300q0 -65 45.5 -110.5
t110.5 -45.5t110.5 45.5t45.5 110.5t-45.5 110.5t-110.5 45.5t-110.5 -45.5t-45.5 -110.5z" />
    <glyph glyph-name="I" unicode="I" 
d="M620 212q0 13 -9.5 22t-22.5 9t-23 -10q-27 -30 -68 -30q-39 0 -66.5 27.5t-27.5 66.5q0 41 30 68q10 10 10 23t-9 22.5t-22 9.5t-22 -9q-49 -46 -49 -114q0 -65 45.5 -110.5t110.5 -45.5q68 0 114 49q9 9 9 22zM381 623q0 -14 11.5 -24t27.5 -6q39 9 80 9
q153 0 290 -130q79 -76 133 -172q-34 -60 -79 -113q-7 -9 -7 -20q0 -13 9 -22t22 -9q15 0 24 11q54 64 94 138q8 15 0 29q-6 13 -17.5 33.5t-51.5 73.5t-84 96q-155 148 -334 148q-48 0 -94 -11q-10 -3 -17 -11.5t-7 -19.5zM779 52q0 13 -9.5 22.5t-21.5 9.5q-11 0 -19 -7
q-102 -77 -229 -79q-153 0 -290 130q-79 76 -133 172q74 131 194 223q13 9 13 25q0 12 -9.5 21.5t-22.5 9.5q-10 0 -18 -7q-138 -105 -220 -257q-8 -14 0 -29q6 -13 17.5 -33.5t51.5 -73.5t84 -96q155 -148 333 -148q149 3 266 93q13 9 13 24zM42 790q-13 0 -22.5 -9.5
t-9.5 -22.5t10 -22l916 -916q9 -10 22 -10t22.5 9.5t9.5 22.5t-10 22l-916 916q-9 10 -22 10z" />
    <glyph glyph-name="J" unicode="J" 
d="M375 60q13 0 22 9.5t9 22.5t-9 22t-22 9h-125q-73 0 -125 52t-52 125t52 125t125 52h125q13 0 22 9t9 22t-9 22.5t-22 9.5h-125q-99 0 -169.5 -70.5t-70.5 -169.5t70.5 -169.5t169.5 -70.5h125zM625 540q-13 0 -22 -9.5t-9 -22.5t9 -22t22 -9h125q73 0 125 -52t52 -125
t-52 -125t-125 -52h-125q-13 0 -22 -9t-9 -22t9 -22.5t22 -9.5h125q99 0 169.5 70.5t70.5 169.5t-70.5 169.5t-169.5 70.5h-125zM333 331q-13 0 -22 -9t-9 -22t9 -22t22 -9h334q13 0 22 9t9 22t-9 22t-22 9h-334z" />
    <glyph glyph-name="K" unicode="K" 
d="M406 300q0 39 27.5 66.5t66.5 27.5t66.5 -27.5t27.5 -66.5t-27.5 -66.5t-66.5 -27.5t-66.5 27.5t-27.5 66.5zM344 300q0 -65 45.5 -110.5t110.5 -45.5t110.5 45.5t45.5 110.5t-45.5 110.5t-110.5 45.5t-110.5 -45.5t-45.5 -110.5zM762.5 618q21.5 0 36.5 -15.5t15 -37
t-17 -39.5q-20 -19 -26.5 -46.5t3.5 -57.5q0 -5 2 -9q12 -27 36.5 -44t55.5 -17h7q22 0 37 -15t15 -37t-16 -37t-40 -15q-30 0 -55 -17t-36 -44q-9 -19 -9 -40q0 -41 31 -72q16 -16 16 -37.5t-15.5 -36.5t-37 -15t-39.5 17q-21 21 -50 27t-60 -6q-27 -12 -43.5 -36.5
t-17.5 -55.5v-7q0 -22 -15 -37t-37 -15q-21 0 -36.5 16t-15.5 40q0 31 -18.5 56.5t-46.5 35.5q-18 8 -39 8q-41 0 -72 -31q-16 -16 -37.5 -16t-36.5 15.5t-15 37t17 39.5q21 21 27 50t-6 60q-12 27 -36.5 43.5t-55.5 17.5h-7q-22 0 -37 15t-15 37q0 21 16 36.5t40 15.5
q31 0 56.5 18.5t35.5 46.5q8 18 8 39q0 41 -31 72q-16 16 -16 37.5t15.5 36.5t37 15t39.5 -17q19 -20 46.5 -26.5t57.5 3.5q5 0 9 2q27 12 44 36.5t17 55.5v7q0 22 15 37t37 15t37 -16t15 -40q0 -30 17 -55t44 -36q19 -9 40 -9q41 0 72 31q16 16 37.5 16zM834 147
q0 17 11 27.5t26 10.5q50 0 84.5 33.5t34.5 81.5q0 47 -34 81t-81 34h-7q-21 0 -32 18l-2 8q-11 23 7 41l2 3q34 33 34 80.5t-33.5 81t-81 33.5t-81.5 -33l-2 -3q-11 -10 -26 -10q-17 0 -27.5 11t-10.5 26v4q0 47 -34 81t-81 34t-81 -34t-34 -81v-7q0 -21 -18 -32l-8 -2
q-23 -11 -41 7l-3 2q-33 34 -80.5 34t-81 -33.5t-33.5 -81t33 -81.5l3 -2q17 -18 6 -43q-8 -24 -33 -25h-4q-47 0 -81 -33.5t-34 -81t34 -81t81 -33.5h7q15 0 26.5 -11t11.5 -27q0 -15 -11 -26l-2 -3q-34 -33 -34 -80.5t33.5 -81t81 -33.5t81.5 33l2 3q18 17 43 6
q24 -8 25 -33v-4q0 -47 33.5 -81t81 -34t81 34t33.5 81v7q0 15 11 26.5t27 11.5q15 0 26 -11l3 -2q33 -34 80.5 -34t81 33.5t33.5 81t-33 81.5l-3 2q-10 11 -10 26z" />
    <glyph glyph-name="L" unicode="L" 
d="M156 342q0 125 88.5 213.5t213.5 88.5t213.5 -88.5t88.5 -213.5t-88.5 -213.5t-213.5 -88.5t-213.5 88.5t-88.5 213.5zM94 342q0 -99 48.5 -183t132.5 -133t183 -49t183 49t133 133t49 183t-49 183t-133 132.5t-183 48.5t-183 -48.5t-132.5 -132.5t-48.5 -183zM875 -106
q13 0 22 9t9 22t-9 22l-181 181q-9 9 -22 9t-22 -9t-9 -22t9 -22l181 -181q9 -9 22 -9z" />
    <glyph glyph-name="M" unicode="M" 
d="M125 -108q-8 0 -13 4q-9 3 -14.5 11t-5.5 18v667q0 47 33.5 81.5t82.5 34.5h584q47 0 81.5 -33.5t34.5 -82.5v-417q0 -47 -33.5 -80t-82.5 -33h-488l-158 -158q-6 -12 -21 -12zM208 642q-22 0 -36 -14t-14 -36v-592l113 112q8 9 21 9h500q21 0 35.5 15t14.5 35v421
q0 21 -15.5 35.5t-34.5 14.5h-584z" />
    <glyph glyph-name="N" unicode="N" 
d="M97 328q-16 8 -30.5 -1.5t-14.5 -26.5q0 -19 17 -28l417 -208q14 -7 28 0l417 208q17 9 17 28q0 17 -14.5 26.5t-30.5 1.5l-403 -201zM97 120q-16 8 -30.5 -2t-14.5 -26q0 -20 17 -28l417 -209q14 -7 28 0l417 209q17 8 17 28q0 16 -14.5 26t-30.5 2l-403 -202zM153 508
l347 174l347 -174l-347 -173zM52 508.5q0 -19.5 17 -28.5l417 -208q14 -7 28 0l417 208q17 9 17 28.5t-17 27.5l-417 209q-14 7 -28 0l-417 -209q-17 -8 -17 -27.5z" />
    <glyph glyph-name="O" unicode="O" 
d="M490 8.5q0 10.5 10 10.5t10 -10.5t-10 -10.5t-10 10.5zM427 8.5q0 -30.5 21.5 -52t51.5 -21.5t51.5 21.5t21.5 52t-21.5 51.5t-51.5 21t-51.5 -21t-21.5 -51.5zM490 591.5q0 10.5 10 10.5t10 -10.5t-10 -10.5t-10 10.5zM427 591.5q0 -30.5 21.5 -51.5t51.5 -21t51.5 21
t21.5 51.5t-21.5 52t-51.5 21.5t-51.5 -21.5t-21.5 -52zM490 300q0 10 10 10t10 -10t-10 -10t-10 10zM427 300q0 -30 21.5 -51.5t51.5 -21.5t51.5 21.5t21.5 51.5t-21.5 51.5t-51.5 21.5t-51.5 -21.5t-21.5 -51.5z" />
    <glyph glyph-name="P" unicode="P" 
d="M198 300q0 10 10.5 10t10.5 -10t-10.5 -10t-10.5 10zM135 300q0 -30 21.5 -51.5t52 -21.5t51.5 21.5t21 51.5t-21 51.5t-51.5 21.5t-52 -21.5t-21.5 -51.5zM781 300q0 10 10.5 10t10.5 -10t-10.5 -10t-10.5 10zM719 300q0 -30 21 -51.5t51.5 -21.5t52 21.5t21.5 51.5
t-21.5 51.5t-52 21.5t-51.5 -21.5t-21 -51.5zM490 300q0 10 10 10t10 -10t-10 -10t-10 10zM427 300q0 -30 21.5 -51.5t51.5 -21.5t51.5 21.5t21.5 51.5t-21.5 51.5t-51.5 21.5t-51.5 -21.5t-21.5 -51.5z" />
    <glyph glyph-name="Q" unicode="Q" 
d="M333 373q-13 0 -22 -9t-9 -22t9 -22.5t22 -9.5h250q13 0 22.5 9.5t9.5 22.5t-9.5 22t-22.5 9h-250zM490 467q0 13 -9.5 22t-22.5 9t-22 -9t-9 -22v-250q0 -13 9 -22.5t22 -9.5t22.5 9.5t9.5 22.5v250zM875 -106q13 0 22 9t9 22t-9 22l-181 181q-9 9 -22 9t-22 -9t-9 -22
t9 -22l181 -181q9 -9 22 -9zM156 342q0 125 88.5 213.5t213.5 88.5t213.5 -88.5t88.5 -213.5t-88.5 -213.5t-213.5 -88.5t-213.5 88.5t-88.5 213.5zM94 342q0 -99 48.5 -183t132.5 -133t183 -49t183 49t133 133t49 183t-49 183t-133 132.5t-183 48.5t-183 -48.5
t-132.5 -132.5t-48.5 -183z" />
    <glyph glyph-name="R" unicode="R" 
d="M333 373q-13 0 -22 -9t-9 -22t9 -22.5t22 -9.5h250q13 0 22.5 9.5t9.5 22.5t-9.5 22t-22.5 9h-250zM875 -106q13 0 22 9t9 22t-9 22l-181 181q-9 9 -22 9t-22 -9t-9 -22t9 -22l181 -181q9 -9 22 -9zM156 342q0 125 88.5 213.5t213.5 88.5t213.5 -88.5t88.5 -213.5
t-88.5 -213.5t-213.5 -88.5t-213.5 88.5t-88.5 213.5zM94 342q0 -99 48.5 -183t132.5 -133t183 -49t183 49t133 133t49 183t-49 183t-133 132.5t-183 48.5t-183 -48.5t-132.5 -132.5t-48.5 -183z" />
    <glyph glyph-name="S" unicode="S" 
d="M385 217q0 -13 9.5 -22.5t22.5 -9.5t22 10l458 458q9 9 9 22t-9 22t-22 9t-22 -9l-458 -458q-10 -9 -10 -22zM625 706q-13 0 -22 -9t-9 -22t9 -22t22 -9h219v-219q0 -13 9 -22t22 -9t22 9t9 22v250q0 13 -9 22t-22 9h-250zM781 258q0 13 -9 22.5t-22 9.5t-22 -9.5
t-9 -22.5v-250q0 -21 -15.5 -36.5t-36.5 -15.5h-459q-21 0 -36.5 15.5t-15.5 36.5v459q0 21 15.5 36.5t36.5 15.5h250q13 0 22.5 9t9.5 22t-9.5 22t-22.5 9h-250q-47 0 -80.5 -33.5t-33.5 -80.5v-459q0 -47 33.5 -80.5t80.5 -33.5h459q47 0 80.5 33.5t33.5 80.5v250z" />
    <glyph glyph-name="T" unicode="T" 
d="M573 717q0 13 -9 22t-22 9t-22.5 -9t-9.5 -22v-292q0 -13 9.5 -22t22.5 -9h291q13 0 22.5 9t9.5 22t-9.5 22t-22.5 9h-260v261zM802 -33q0 -22 -15 -37t-37 -15h-500q-22 0 -37 15t-15 37v666q0 22 15 37t37 15h279l273 -273v-445zM542 748h-292q-47 0 -81 -33.5
t-34 -81.5v-666q0 -48 34 -81.5t81 -33.5h500q47 0 81 33.5t34 81.5v458q0 13 -10 22l-291 292q-9 9 -22 9z" />
    <glyph glyph-name="U" unicode="U" 
d="M94 -75q0 -13 9 -22t22 -9t22 9l292 292q9 9 9 22t-9 22t-22 9t-22 -9l-292 -292q-9 -9 -9 -22zM906 675q0 13 -9 22t-22 9t-22 -9l-292 -292q-9 -9 -9 -22t9 -22t22 -9t22 9l292 292q9 9 9 22zM375 -106q13 0 22 9t9 22t-9 22t-22 9h-219v219q0 13 -9 22t-22 9t-22 -9
t-9 -22v-250q0 -13 9 -22t22 -9h250zM625 706q-13 0 -22 -9t-9 -22t9 -22t22 -9h219v-219q0 -13 9 -22t22 -9t22 9t9 22v250q0 13 -9 22t-22 9h-250z" />
    <glyph glyph-name="V" unicode="V" 
d="M94 -75q0 -13 9 -22t22 -9t22 9l292 292q9 9 9 22t-9 22t-22 9t-22 -9l-292 -292q-9 -9 -9 -22zM552 383q0 -13 9 -22t22 -9t22 9l292 292q9 9 9 22t-9 22t-22 9t-22 -9l-292 -292q-9 -9 -9 -22zM833 352q13 0 22.5 9t9.5 22t-9.5 22.5t-22.5 9.5h-218v218
q0 13 -9.5 22.5t-22.5 9.5t-22 -9.5t-9 -22.5v-250q0 -13 9 -22t22 -9h250zM167 248q-13 0 -22.5 -9t-9.5 -22t9.5 -22.5t22.5 -9.5h218v-218q0 -13 9.5 -22.5t22.5 -9.5t22 9.5t9 22.5v250q0 13 -9 22t-22 9h-250z" />
    <glyph glyph-name="W" unicode="W" 
d="M687 233q-12 -11 -9 -27l38 -225l-201 106q-15 8 -30 0l-201 -106l38 225q3 16 -9 27l-163 159l226 33q16 2 23 17l101 204l101 -204q7 -15 23 -17l226 -33zM500 748q-19 0 -28 -18l-122 -246l-271 -39q-12 -2 -19.5 -11t-7.5 -20q0 -13 10 -23l196 -191l-46 -271
q-4 -18 12 -30t33 -2l243 127l243 -127q17 -9 33 2t12 30l-46 271l196 191q10 10 10 23q0 11 -7.5 20t-19.5 11l-271 39l-122 246q-9 18 -28 18z" />
    <glyph glyph-name="X" unicode="X" 
d="M250 581q-13 0 -22 -9t-9 -22t9 -22l500 -500q9 -9 22 -9t22 9t9 22t-9 22l-500 500q-9 9 -22 9zM781 550q0 13 -9 22t-22 9t-22 -9l-500 -500q-9 -9 -9 -22t9 -22t22 -9t22 9l500 500q9 9 9 22z" />
    <glyph glyph-name="Y" unicode="Y" 
d="M125 415q-13 0 -22 -9.5t-9 -22.5t9 -22t22 -9h750q13 0 22 9t9 22t-9 22.5t-22 9.5h-750zM365 717q0 13 -9.5 22t-22.5 9t-22 -9t-9 -22v-167q0 -13 9 -22t22 -9t22.5 9t9.5 22v167zM698 717q0 13 -9 22t-22 9t-22.5 -9t-9.5 -22v-167q0 -13 9.5 -22t22.5 -9t22 9t9 22
v167zM156 550q0 30 1 39q0 7 1 11q4 1 9 1q10 1 41 1h584q29 0 39 -1q6 0 11 -1q1 -4 1 -9q1 -10 1 -41v-583q0 -30 -1 -40q0 -6 -1 -10q-4 -1 -9 -2h-41h-584h-39q-6 1 -11 2q-1 3 -1 8q-1 10 -1 42v583zM94 550v-583q0 -47 3 -62q5 -28 25 -41q14 -8 35 -10q14 -2 51 -2
h584q46 0 62 3q27 6 40 26q9 13 11 35q1 13 1 51v583q0 38 -1 51q-2 22 -11 35q-13 20 -40 26q-16 3 -62 3h-584q-37 0 -51 -2q-21 -2 -35 -11q-20 -13 -25 -40q-3 -15 -3 -62z" />
    <glyph glyph-name="Z" unicode="Z" 
d="M656 592q0 39 27.5 66t66.5 27t66.5 -27t27.5 -66t-27.5 -66.5t-66.5 -27.5t-66.5 27.5t-27.5 66.5zM594 591.5q0 -64.5 45.5 -110.5t110.5 -46t110.5 46t45.5 110.5t-45.5 110.5t-110.5 46t-110.5 -46t-45.5 -110.5zM156 300q0 39 27.5 66.5t66.5 27.5t66.5 -27.5
t27.5 -66.5t-27.5 -66.5t-66.5 -27.5t-66.5 27.5t-27.5 66.5zM94 300q0 -65 45.5 -110.5t110.5 -45.5t110.5 45.5t45.5 110.5t-45.5 110.5t-110.5 45.5t-110.5 -45.5t-45.5 -110.5zM656 8q0 39 27.5 66.5t66.5 27.5t66.5 -27.5t27.5 -66.5t-27.5 -66t-66.5 -27t-66.5 27
t-27.5 66zM594 8.5q0 -64.5 45.5 -110.5t110.5 -46t110.5 46t45.5 110.5t-45.5 110.5t-110.5 46t-110.5 -46t-45.5 -110.5zM374 264q-16 9 -31.5 0t-15.5 -27t15 -27l285 -166q16 -9 31.5 0.5t15.5 26.5q0 18 -16 27zM673 529q0 17 -15.5 26.5t-31.5 0.5l-284 -166
q-15 -9 -15 -27t15.5 -27t31.5 0l284 166q15 9 15 27z" />
    <glyph glyph-name="bracketleft" unicode="[" 
d="M906 175q0 13 -9 22t-22 9t-22 -9t-9 -22v-167q0 -21 -15.5 -36.5t-36.5 -15.5h-584q-21 0 -36.5 15.5t-15.5 36.5v167q0 13 -9 22t-22 9t-22 -9t-9 -22v-167q0 -47 33.5 -80.5t80.5 -33.5h584q47 0 80.5 33.5t33.5 80.5v167zM708 435q13 0 22.5 9.5t9.5 22.5t-10 22
l-208 208q-9 9 -22 9t-22 -9l-208 -208q-10 -9 -10 -22t9.5 -22.5t22.5 -9.5t22 10l186 186l186 -186q9 -10 22 -10zM531 675q0 13 -9 22t-22 9t-22 -9t-9 -22v-500q0 -13 9 -22t22 -9t22 9t9 22v500z" />
    <glyph glyph-name="backslash" unicode="\" 
d="M333 331h-250q-13 0 -22 -9t-9 -22t9 -22t22 -9h234l74 -111q9 -14 26 -14h166q17 0 26 14l74 111h234q13 0 22 9t9 22t-9 22t-22 9h-250q-17 0 -26 -14l-74 -111h-134l-74 111q-9 14 -26 14zM302 602h396q33 0 47 -29l140 -280v-243q0 -22 -15 -37t-37 -15h-666
q-22 0 -37 15t-15 37v243l140 280q14 29 47 29zM52 300v-250q0 -47 33.5 -81t81.5 -34h666q48 0 81.5 34t33.5 81v250q0 7 -3 14l-144 287q-14 29 -41.5 46.5t-61.5 17.5h-396q-34 0 -61.5 -17.5t-41.5 -46.5l-144 -287q-3 -7 -3 -14z" />
    <glyph glyph-name="bracketright" unicode="]" 
d="M500 648q29 0 45 -25l352 -589q7 -12 7 -26q0 -21 -15 -36.5t-36 -15.5h-706q-21 0 -36 15.5t-15 36.5q0 14 7 26l353 589q15 25 44 25zM33 8q0 -47 33.5 -80.5t80.5 -33.5h706q47 0 80.5 33.5t33.5 80.5q0 31 -16 58l-353 589q-15 26 -41 41t-57 15t-57 -15.5t-41 -40.5
l-353 -589q-16 -27 -16 -58zM531 425q0 13 -9 22t-22 9t-22 -9t-9 -22v-167q0 -13 9 -22t22 -9t22 9t9 22v167zM469 92q0 -13 9 -22.5t22 -9.5t22.5 9.5t9.5 22.5t-9.5 22t-22.5 9t-22 -9t-9 -22z" />
    <glyph glyph-name="a" unicode="a" 
d="M948 717q0 13 -9 22t-22 9t-22 -9l-459 -459q-9 -9 -9 -22t9 -22t22 -9t22 9l459 459q9 9 9 22zM168 422l698 244l-244 -698l-135 303q-5 11 -16 16zM52 425q0 -20 19 -29l364 -161l161 -364q9 -19 29 -19q22 0 30 21l291 833q7 19 -7 33t-33 7l-833 -291q-21 -8 -21 -30
z" />
    <glyph glyph-name="b" unicode="b" 
d="M708 -150h-416q-100 0 -171 71t-71 171v416q0 100 71 171t171 71h416q100 0 171 -71t71 -171v-416q0 -100 -71 -171t-171 -71zM292 683q-72 0 -123.5 -51.5t-51.5 -123.5v-416q0 -72 51.5 -123.5t123.5 -51.5h416q72 0 123.5 51.5t51.5 123.5v416q0 72 -51.5 123.5
t-123.5 51.5h-416zM500 104q-67 0 -117 38q-66 53 -79 129q-12 81 36.5 146.5t130.5 78.5q29 6 58 0q66 -10 111.5 -55.5t55.5 -111.5q13 -83 -38 -146q-53 -66 -129 -79h-29zM500 438h-21q-56 -10 -89 -54.5t-23 -100.5q9 -56 53.5 -88.5t100.5 -23.5q53 6 87 54
q32 45 25 100q-6 41 -37 72t-75 41h-21zM729 496q-13 0 -23 9t-10 24t8 24t21 9t23 -9t10 -24t-8 -24t-21 -9z" />
    <glyph glyph-name="c" unicode="c" 
d="M687 644q70 0 117 -53q13 -16 33 -10q30 9 59 23q-19 -33 -46 -60q-12 -11 -9 -28q3 -14 3 -29q0 -136 -48.5 -242t-134.5 -176q-134 -110 -317 -110q-90 0 -178 29q100 20 185 78q14 9 14 26q0 20 -19 28q-71 32 -124 82t-81.5 106.5t-41.5 109.5t-13 103q0 44 9 75
q3 9 7 16q66 -92 167.5 -145.5t218.5 -53.5h13q12 1 21 10t9 22v44q0 64 45.5 109.5t110.5 45.5zM42 40q-13 0 -22.5 -9.5t-9.5 -22.5q0 -18 17 -27q152 -84 317 -84q205 0 357 124q96 78 150.5 197.5t54.5 269.5q0 11 -1 23q62 68 84 157q5 20 -13 32.5t-36 0.5
q-48 -34 -104 -54q-63 60 -149 60q-91 0 -154.5 -64.5t-63.5 -156.5v-10q-98 5 -181 51.5t-137 123.5q-22 31 -50 31q-30 0 -50 -32q-12 -19 -19 -48q-8 -36 -8 -81q0 -52 12.5 -107.5t39 -115t76.5 -114.5t117 -94q-105 -54 -227 -50z" />
    <glyph glyph-name="d" unicode="d" 
d="M115 633.5q0 21.5 15 36.5t36.5 15t37 -15t15.5 -36.5t-15.5 -37t-37 -15.5t-36.5 15.5t-15 37zM52 633.5q0 -47.5 33.5 -81t81 -33.5t81 33.5t33.5 81t-33.5 81t-81 33.5t-81 -33.5t-33.5 -81zM219 -44h-104v438h104v-438zM83 -106h167q13 0 22 9t9 22v500q0 13 -9 22
t-22 9h-167q-13 0 -22 -9t-9 -22v-500q0 -13 9 -22t22 -9zM666.5 435q90.5 0 154.5 -64t64 -154v-261h-104v261q0 47 -33.5 80.5t-81 33.5t-81 -33.5t-33.5 -80.5v-261h-104v261q0 90 64 154t154.5 64zM666.5 498q-116.5 0 -199 -82.5t-82.5 -198.5v-292q0 -13 9.5 -22
t22.5 -9h166q13 0 22.5 9t9.5 22v292q0 21 15 36.5t36.5 15.5t37 -15.5t15.5 -36.5v-292q0 -13 9 -22t22 -9h167q13 0 22 9t9 22v292q0 116 -82.5 198.5t-199 82.5z" />
    <glyph glyph-name="e" unicode="e" 
d="M898 235q16 -4 28 5.5t12 24.5q0 11 -7 19.5t-17 10.5q-107 29 -207 29q-50 0 -97 -8q-16 39 -33 76q144 59 244 176q7 8 7 20q0 13 -9 22t-22 9q-14 0 -24 -11q-91 -107 -225 -161q-58 108 -166 257q-9 13 -25 13q-13 0 -22.5 -9.5t-9.5 -22.5q0 -10 6 -18
q102 -140 157 -241q-148 -45 -395 -51q-13 0 -22 -9t-9 -22t9.5 -22t23.5 -9q262 6 422 57q17 -33 31 -67q-12 -4 -25 -9q-176 -62 -325 -274q-5 -8 -5 -18q0 -13 9 -22.5t22 -9.5q16 0 25 14q138 195 295 252q13 4 28 8q44 -118 89 -304q2 -11 10.5 -17.5t19.5 -6.5
q15 0 24.5 11.5t6.5 26.5q-45 184 -88 302q35 5 73 5q92 0 191 -26zM115 300q0 105 51.5 193.5t140 140t193.5 51.5t193.5 -51.5t140 -140t51.5 -193.5t-51.5 -193.5t-140 -140t-193.5 -51.5t-193.5 51.5t-140 140t-51.5 193.5zM52 300q0 -91 35.5 -174t95.5 -143t143 -95.5
t174 -35.5t174 35.5t143 95.5t95.5 143t35.5 174t-35.5 174t-95.5 143t-143 95.5t-174 35.5t-174 -35.5t-143 -95.5t-95.5 -143t-35.5 -174z" />
    <glyph glyph-name="f" unicode="f" 
d="M531 717q0 13 -9 22t-22 9t-22 -9t-9 -22v-271q0 -13 9 -22t22 -9t22 9t9 22v271zM52 154q0 -13 9 -22t22 -9q10 0 18 6l399 279l399 -279q8 -6 18 -6q13 0 22 9t9 22q0 16 -13 26l-417 291q-18 13 -36 0l-417 -291q-13 -10 -13 -26zM948 446q0 13 -9 22t-22 9
q-10 0 -18 -6l-399 -279l-399 279q-8 6 -18 6q-13 0 -22 -9t-9 -22q0 -16 13 -26l417 -291q18 -13 36 0l417 291q13 10 13 26zM469 -117q0 -13 9 -22t22 -9t22 9t9 22v271q0 13 -9 22t-22 9t-22 -9t-9 -22v-271zM115 429l385 250l385 -250v-258l-385 -250l-385 250v258z
M52 446v-292q0 -17 14 -26l417 -271q17 -11 34 0l417 271q14 9 14 26v292q0 17 -14 26l-417 271q-17 11 -34 0l-417 -271q-14 -9 -14 -26z" />
    <glyph glyph-name="g" unicode="g" 
d="M667 -148q13 0 22 9t9 22v159q4 46 -16 88q77 15 129 50q62 43 91 115q25 64 25 150q0 92 -58 164q23 82 -11 162q-7 16 -22 25q-11 6 -26 6q-22 0 -56.5 -16.5t-92.5 -55.5q-69 17 -140.5 17t-139.5 -17q-94 61 -157 61q-13 0 -21 -3q-14 -4 -20 -17q-33 -80 -10 -162
q-58 -72 -58 -165q0 -86 25 -149q29 -72 91 -115q52 -35 129 -51q-17 -35 -17 -75q0 -3 0.5 -10.5t0.5 -11.5q-29 -6 -53 -6q-36 0 -63 16q-21 14 -53 54q-15 20 -23 29t-25.5 21.5t-35.5 17.5q-15 3 -27 -6.5t-12 -24.5q0 -11 6.5 -19t17.5 -11q12 -3 25 -16q8 -8 25 -30
q38 -48 69 -67q42 -27 96 -27q25 0 53 5v-85q0 -13 9 -22t22 -9t22 9t9 22v162q-3 50 31 85q8 9 8 22q0 12 -7.5 21t-19.5 10q-99 12 -152 49q-89 61 -89 213q0 78 54 135q13 14 7 32q-22 57 -4 115q49 -6 124 -56q11 -8 25 -5q68 19 138 19t137 -19q14 -3 26 5q63 42 96 58
q13 6 24 9q11 -30 11 -63t-11 -63q-7 -18 7 -32q54 -57 54 -135q0 -152 -89 -213q-54 -37 -152 -48q-12 -1 -20 -10t-8 -21t9 -21q34 -36 31 -85v-164q0 -13 9 -22t22 -9z" />
    <glyph glyph-name="h" unicode="h" 
d="M706 644q82 0 140 -58t58 -140t-58 -140q-67 -68 -193.5 -194t-152.5 -152q-26 26 -152.5 152t-193.5 194q-58 58 -58 140t58 140t140 58t140 -58l44 -44q9 -9 22 -9t22 9l44 44q58 58 140 58zM967 446q0 108 -76.5 184t-184.5 76t-184 -76l-22 -22l-22 22
q-76 76 -184 76t-184.5 -76t-76.5 -184t77 -184q72 -72 206.5 -207t161.5 -162q9 -9 22 -9t22 9q23 24 159.5 160t208.5 209q77 76 77 184z" />
    <glyph glyph-name="i" unicode="i" 
d="M281 -2v271h344q56 0 95.5 -40t39.5 -96t-39.5 -95.5t-95.5 -39.5h-344zM219 300v-333q0 -13 9 -22.5t22 -9.5h375q82 0 140 58t58 140t-58 140t-140 58h-375q-13 0 -22 -9t-9 -22zM281 331v271h302q56 0 96 -39.5t40 -95.5t-40 -96t-96 -40h-302zM219 633v-333
q0 -13 9 -22t22 -9h333q82 0 140 58t58 140t-58 140t-140 58h-333q-13 0 -22 -9.5t-9 -22.5z" />
    <glyph glyph-name="j" unicode="j" 
d="M323 352h94q13 0 22 9t9 22v125q0 74 52 125.5t125 51.5h94v-104h-94q-30 0 -51.5 -21t-21.5 -52v-125q0 -13 9 -22t22 -9h127l-26 -104h-101q-13 0 -22 -9t-9 -22v-302h-104v302q0 13 -9 22t-22 9h-94v104zM750 748h-125q-99 0 -169.5 -70t-70.5 -170v-93h-93
q-13 0 -22.5 -9.5t-9.5 -22.5v-166q0 -13 9.5 -22.5t22.5 -9.5h93v-302q0 -13 9.5 -22t22.5 -9h166q13 0 22.5 9t9.5 22v302h93q11 0 19.5 7t11.5 17l41 167q4 15 -5.5 27t-24.5 12h-135v93q0 5 3 8t7 3h125q13 0 22 9t9 22v167q0 13 -9 22t-22 9z" />
    <glyph glyph-name="k" unicode="k" 
d="M927 307q0 -106 -19 -210q-11 -45 -58 -59q-37 -9 -172 -14l-178 -4q-88 0 -178 4q-135 5 -172 15q-22 5 -37.5 21t-21.5 37q-18 100 -18 218q0 107 19 210q11 46 58 59q37 10 172 15l178 3q88 0 178 -3q135 -4 173 -14q22 -6 37 -22t21 -38q18 -101 18 -218zM970 86
q20 109 20 232q0 110 -21 222q-9 38 -37 66.5t-66 39.5q-44 11 -186 16q-25 0 -53 1t-49.5 1t-40 0.5t-28 0.5h-9.5q-89 0 -181 -4q-141 -5 -186 -17q-37 -10 -65 -39.5t-38 -68.5q-20 -109 -20 -233q0 -110 21 -223q10 -37 37.5 -64.5t65.5 -37.5q44 -12 185 -17
q26 -1 54 -1.5t49.5 -1t40 -0.5h28h9.5q89 0 181 3q141 5 186 17q37 11 65 40.5t38 67.5zM583 310l-145 -82v165zM677 310.5q0 18.5 -16 27.5l-239 136q-16 9 -31.5 -0.5t-15.5 -26.5v-273q0 -17 15.5 -26.5t31.5 -0.5l239 136q16 9 16 27.5z" />
    <glyph glyph-name="l" unicode="l" 
d="M625 19q13 0 22 9t9 22t-9 22l-228 228l228 228q9 9 9 22t-9 22t-22 9t-22 -9l-250 -250q-9 -9 -9 -22t9 -22l250 -250q9 -9 22 -9z" />
    <glyph glyph-name="m" unicode="m" 
d="M344 50q0 -13 9 -22t22 -9t22 9l250 250q9 9 9 22t-9 22l-250 250q-9 9 -22 9t-22 -9t-9 -22t9 -22l228 -228l-228 -228q-9 -9 -9 -22z" />
    <glyph glyph-name="n" unicode="n" 
d="M750 144q13 0 22 9t9 22t-9 22l-250 250q-9 9 -22 9t-22 -9l-250 -250q-9 -9 -9 -22t9 -22t22 -9t22 9l228 228l228 -228q9 -9 22 -9z" />
    <glyph glyph-name="o" unicode="o" 
d="M250 456q-13 0 -22 -9t-9 -22t9 -22l250 -250q9 -9 22 -9t22 9l250 250q9 9 9 22t-9 22t-22 9t-22 -9l-228 -228l-228 228q-9 9 -22 9z" />
    <glyph glyph-name="p" unicode="p" 
d="M635 342q0 -13 9.5 -22.5t22.5 -9.5t22 9.5t9 22.5v166q0 13 -9 22.5t-22 9.5t-22.5 -9.5t-9.5 -22.5v-166zM427 342q0 -13 9 -22.5t22 -9.5t22.5 9.5t9.5 22.5v166q0 13 -9.5 22.5t-22.5 9.5t-22 -9.5t-9 -22.5v-166zM156 685h688v-455l-149 -149h-195q-13 0 -22 -9
l-113 -113v91q0 13 -9.5 22t-22.5 9h-177v604zM875 748h-750q-13 0 -22 -9t-9 -22v-667q0 -13 9 -22t22 -9h177v-136q0 -13 9 -22t22 -9t22 9l158 158h195q13 0 22 9l167 167q9 9 9 22v500q0 13 -9 22t-22 9z" />
    <glyph glyph-name="q" unicode="q" 
d="M240 570.5q0 47.5 33.5 81t80.5 33.5h115v-229h-115q-47 0 -80.5 33.5t-33.5 81zM177 571q0 -73 52 -125t125 -52h146q13 0 22 9t9 22v292q0 13 -9 22t-22 9h-146q-73 0 -125 -52t-52 -125zM531 456v229h115q47 0 80.5 -33.5t33.5 -81t-33.5 -81t-80.5 -33.5h-115z
M469 717v-292q0 -13 9 -22t22 -9h146q73 0 125 52t52 125t-52 125t-125 52h-146q-13 0 -22 -9t-9 -22zM531 279.5q0 47.5 33.5 81t81 33.5t81 -33.5t33.5 -81t-33.5 -81t-81 -33.5t-81 33.5t-33.5 81zM469 279q0 -73 52 -125t125 -52t125 52t52 125t-52 125t-125 52
t-125 -52t-52 -125zM240 -12.5q0 47.5 33.5 81t80.5 33.5h115v-114q0 -48 -33.5 -81.5t-81 -33.5t-81 33.5t-33.5 81zM177 -12.5q0 -73.5 52 -125.5t125 -52t125 52t52 126v145q0 13 -9 22.5t-22 9.5h-146q-73 0 -125 -52t-52 -125.5zM240 279.5q0 47.5 33.5 81t80.5 33.5
h115v-229h-115q-47 0 -80.5 33.5t-33.5 81zM177 279q0 -73 52 -125t125 -52h146q13 0 22 9t9 22v292q0 13 -9 22t-22 9h-146q-73 0 -125 -52t-52 -125z" />
    <glyph glyph-name="r" unicode="r" 
d="M802 -33q0 -22 -15 -37t-37 -15h-500q-22 0 -37 15t-15 37v666q0 22 15 37t37 15h279l273 -273v-445zM542 748h-292q-47 0 -81 -33.5t-34 -81.5v-666q0 -48 34 -81.5t81 -33.5h500q47 0 81 33.5t34 81.5v458q0 13 -10 22l-291 292q-9 9 -22 9zM573 717q0 13 -9 22t-22 9
t-22.5 -9t-9.5 -22v-292q0 -13 9.5 -22t22.5 -9h291q13 0 22.5 9t9.5 22t-9.5 22t-22.5 9h-260v261z" />
    <glyph glyph-name="s" unicode="s" 
d="M792 -108h-584q-47 0 -81.5 33.5t-34.5 82.5v584q0 47 33.5 81.5t82.5 34.5h584q47 0 81.5 -33.5t34.5 -82.5v-584q0 -47 -34.5 -81.5t-81.5 -34.5zM208 642q-22 0 -36 -14t-14 -36v-584q0 -21 15.5 -35.5t34.5 -14.5h584q21 0 35.5 15.5t14.5 34.5v584q0 21 -15.5 35.5
t-34.5 14.5h-584zM354.5 350q-37.5 0 -65 27t-27.5 64.5t27.5 64.5t65 27t64.5 -27t27 -64.5t-27 -64.5t-64.5 -27zM354 475q-13 0 -23 -9t-10 -24q0 -16 9 -25t24.5 -9t24.5 9t9 25q0 15 -10.5 24t-23.5 9zM208 -108q-12 0 -20 8q-10 9 -10 22.5t10 23.5l458 458
q9 10 22.5 10t23.5 -10l208 -208q9 -10 9 -23.5t-9 -22.5t-22.5 -9t-23.5 9l-187 188l-438 -434q-6 -12 -21 -12z" />
    <glyph glyph-name="t" unicode="t" 
d="M167 456q-13 0 -22.5 -9t-9.5 -22t9.5 -22t22.5 -9h666q13 0 22.5 9t9.5 22t-9.5 22t-22.5 9h-666zM167 206q-13 0 -22.5 -9t-9.5 -22t9.5 -22t22.5 -9h666q13 0 22.5 9t9.5 22t-9.5 22t-22.5 9h-666zM417 706q-12 0 -21 -8t-10 -20l-84 -750q-1 -14 8.5 -24t22.5 -10
q12 0 21 8t10 20q84 750 84 753q0 13 -9 22t-22 9zM667 706q-12 0 -21 -8t-10 -20l-84 -750q-1 -14 8.5 -24t22.5 -10q12 0 21 8t10 20q84 750 84 753q0 13 -9 22t-22 9z" />
    <glyph glyph-name="u" unicode="u" 
d="M156 591.5q0 7.5 10 17.5q18 18 59 34q107 42 275 42t275 -42q41 -16 59 -34q10 -10 10 -17.5t-10 -16.5q-18 -19 -59 -35q-107 -42 -275 -42t-275 42q-41 16 -59 35q-10 9 -10 16.5zM94 592q0 -52 67 -91q48 -27 125 -44q97 -22 214 -22t214 22q77 17 125 44
q67 39 67 91t-67 90q-48 27 -125 44q-97 22 -214 22t-214 -22q-77 -17 -125 -44q-67 -38 -67 -90zM906 300q0 13 -9 22t-22 9t-22 -9t-9 -22q0 -7 -10 -17q-18 -18 -58 -35q-107 -42 -276 -42t-276 42q-40 17 -58 35q-10 10 -10 17q0 13 -9 22t-22 9t-22 -9t-9 -22
q0 -52 66 -90q48 -28 125 -45q98 -21 215 -21t215 21q77 17 125 45q66 38 66 90zM156 592q0 13 -9 22t-22 9t-22 -9t-9 -22v-584q0 -52 66 -90q48 -27 125 -44q98 -22 215 -22t215 22q77 17 125 44q66 38 66 90v584q0 13 -9 22t-22 9t-22 -9t-9 -22v-584q0 -7 -10 -17
q-18 -18 -58 -34q-107 -42 -276 -42t-276 42q-40 16 -58 34q-10 10 -10 17v584z" />
    <glyph glyph-name="v" unicode="v" 
d="M906 175q0 13 -9 22t-22 9t-22 -9t-9 -22v-167q0 -21 -15.5 -36.5t-36.5 -15.5h-584q-21 0 -36.5 15.5t-15.5 36.5v167q0 13 -9 22t-22 9t-22 -9t-9 -22v-167q0 -47 33.5 -80.5t80.5 -33.5h584q47 0 80.5 33.5t33.5 80.5v167zM292 415q-13 0 -22.5 -9.5t-9.5 -22.5
t10 -22l208 -208q9 -9 22 -9t22 9l208 208q10 9 10 22t-9.5 22.5t-22.5 9.5t-22 -10l-186 -186l-186 186q-9 10 -22 10zM469 175q0 -13 9 -22t22 -9t22 9t9 22v500q0 13 -9 22t-22 9t-22 -9t-9 -22v-500z" />
    <glyph glyph-name="w" unicode="w" 
d="M802 -33q0 -22 -15 -37t-37 -15h-500q-22 0 -37 15t-15 37v666q0 22 15 37t37 15h320l232 -231v-487zM583 748h-333q-47 0 -81 -33.5t-34 -81.5v-666q0 -48 34 -81.5t81 -33.5h500q47 0 81 33.5t34 81.5v500q0 13 -10 22l-250 250q-9 9 -22 9zM615 717q0 13 -9.5 22
t-22.5 9t-22 -9t-9 -22v-250q0 -13 9 -22.5t22 -9.5h250q13 0 22.5 9.5t9.5 22.5t-9.5 22t-22.5 9h-218v219zM469 50q0 -13 9 -22t22 -9t22 9t9 22v250q0 13 -9 22t-22 9t-22 -9t-9 -22v-250zM375 206q-13 0 -22 -9t-9 -22t9 -22t22 -9h250q13 0 22 9t9 22t-9 22t-22 9h-250
z" />
    <glyph glyph-name="x" unicode="x" 
d="M802 -33q0 -22 -15 -37t-37 -15h-500q-22 0 -37 15t-15 37v666q0 22 15 37t37 15h320l232 -231v-487zM583 748h-333q-47 0 -81 -33.5t-34 -81.5v-666q0 -48 34 -81.5t81 -33.5h500q47 0 81 33.5t34 81.5v500q0 13 -10 22l-250 250q-9 9 -22 9zM615 717q0 13 -9.5 22
t-22.5 9t-22 -9t-9 -22v-250q0 -13 9 -22.5t22 -9.5h250q13 0 22.5 9.5t9.5 22.5t-9.5 22t-22.5 9h-218v219zM375 206q-13 0 -22 -9t-9 -22t9 -22t22 -9h250q13 0 22 9t9 22t-9 22t-22 9h-250z" />
    <glyph glyph-name="y" unicode="y" 
d="M115 300q0 105 51.5 193.5t140 140t193.5 51.5t193.5 -51.5t140 -140t51.5 -193.5t-51.5 -193.5t-140 -140t-193.5 -51.5t-193.5 51.5t-140 140t-51.5 193.5zM52 300q0 -91 35.5 -174t95.5 -143t143 -95.5t174 -35.5t174 35.5t143 95.5t95.5 143t35.5 174t-35.5 174
t-95.5 143t-143 95.5t-174 35.5t-174 -35.5t-143 -95.5t-95.5 -143t-35.5 -174zM531 467q0 13 -9 22t-22 9t-22 -9l-167 -167q-9 -9 -9 -22t9 -22l167 -167q9 -9 22 -9t22 9t9 22t-9 22l-144 145l144 145q9 9 9 22zM667 269q13 0 22 9t9 22t-9 22t-22 9h-334q-13 0 -22 -9
t-9 -22t9 -22t22 -9h334z" />
    <glyph glyph-name="z" unicode="z" 
d="M115 300q0 105 51.5 193.5t140 140t193.5 51.5t193.5 -51.5t140 -140t51.5 -193.5t-51.5 -193.5t-140 -140t-193.5 -51.5t-193.5 51.5t-140 140t-51.5 193.5zM52 300q0 -91 35.5 -174t95.5 -143t143 -95.5t174 -35.5t174 35.5t143 95.5t95.5 143t35.5 174t-35.5 174
t-95.5 143t-143 95.5t-174 35.5t-174 -35.5t-143 -95.5t-95.5 -143t-35.5 -174zM469 133q0 -13 9 -22t22 -9t22 9l167 167q9 9 9 22t-9 22l-167 167q-9 9 -22 9t-22 -9t-9 -22t9 -22l144 -145l-144 -145q-9 -9 -9 -22zM333 331q-13 0 -22 -9t-9 -22t9 -22t22 -9h334
q13 0 22 9t9 22t-9 22t-22 9h-334z" />
  </font>
</defs>
</svg>
