<?xml version="1.0" encoding="utf-8"?>
<!-- Generator: Adobe Illustrator 25.0.0, SVG Export Plug-In . SVG Version: 6.00 Build 0)  -->
<svg version="1.1" id="Camada_1" xmlns="http://www.w3.org/2000/svg" xmlns:xlink="http://www.w3.org/1999/xlink" x="0px" y="0px"
	 viewBox="0 0 40 37" style="enable-background:new 0 0 40 37;" xml:space="preserve">
<path d="M38.5,16c-0.1-1.1-0.4-2.2-0.4-2.2c-0.1-0.3-0.2-0.7-0.4-1.1c-0.1-0.3-0.3-0.7-0.5-1c-0.7-1.3-1.5-2.5-2.6-3.6
	c-0.5-0.5-1.1-1-1.7-1.4c-0.3-0.2-0.6-0.4-0.9-0.6c-0.2-0.1-0.3-0.2-0.5-0.3L31,5.6C30.4,5.3,30,5,29.8,4.5l0,0
	c-0.1-0.1-0.1-0.2-0.2-0.3l0,0c0,0,0-0.1,0-0.1c0,0,0,0,0-0.1c0,0,0,0,0,0c0.1-0.1,0.1-0.2,0.2-0.3C30,3.5,30,3.2,30,3l0,0l0,0
	c-0.2-0.4-0.4-0.8-0.6-1.1l-0.7-1l-0.7,1c-0.4,0.6-0.9,1.1-1.3,1.7c-0.8,1.1-1.6,2.2-2.4,3.3L24.1,7c-0.6-0.3-1.3-0.6-2-0.8
	C21.3,6.1,20.5,6,19.7,6c-0.1,0-0.2,0-0.3,0C18,6,16.5,6.2,15,6.6c-3.1,0.8-6,2.3-8.3,4.3c-1.2,1.1-2.3,2.3-3.1,3.5
	c-0.8,1.2-1.5,2.7-1.9,4.3c-0.4,1.5-0.7,3-0.8,4.6c0,0.8-0.1,1.6,0,2.3c0,0.7,0.1,1.5,0.3,2.4c0.1,0.2,0.1,0.4,0.2,0.6
	c0.1,0.2,0.1,0.4,0.2,0.5c0.1,0.4,0.2,0.7,0.2,1.1v0c0.1,0.4,0,0.9,0,1.4c0,0.3,0,0.6,0,0.9c0,0.4,0,0.8,0.1,1.2
	C1.9,34,2,34.5,2.2,34.9c0.2,0.4,0.5,0.7,0.9,1c0.2,0.1,0.4,0.2,0.6,0.3c0.1,0,0.3,0,0.4,0c0.1,0,0.2,0,0.3,0c0.4-0.1,0.7-0.2,1-0.3
	c0.1,0,0.1,0,0.2-0.1c0.4-0.1,0.7-0.2,1-0.3h0c0.2,0,0.4,0,0.7,0c0.5,0,1,0.1,1.5,0.2c0.1,0,0.3,0.1,0.4,0.1C9.5,35.9,9.7,36,9.9,36
	c0.4,0.1,0.8,0.1,1.2,0.1c0.7,0,1.5-0.1,2.4-0.3c1.4-0.3,2.9-0.8,4.4-1.6c0.7-0.3,1.4-0.7,2.1-1.1c0.6-0.4,1.2-0.8,1.9-1.3
	c1.3-1,2.5-2.1,3.4-3.2c0.8-0.9,1.5-2,2.1-3.1c0.1,0.2,0.1,0.3,0.2,0.5c0.2,0.4,0.4,0.7,0.6,1c0.8,1.3,1.8,2.4,3.1,3.5
	c1.2,0.9,2.6,1.5,4,2.2c0.1-1.4,0.6-2.7,1-4c0.2-0.5,0.4-1.1,0.6-1.6c0-0.1,0.1-0.2,0.1-0.4c0,0,0.4-1,0.7-2
	C38.3,22.9,38.9,18.7,38.5,16z M11.3,34.5c0,0-0.1,0-0.1,0c-0.3,0-0.6,0-0.9-0.1l0,0c-0.1,0-0.3-0.1-0.5-0.1c-0.2,0-0.3-0.1-0.5-0.1
	c-0.6-0.2-1.3-0.3-2-0.3c-0.3,0-0.6,0-0.8,0.1l-0.2,0l-0.2,0C5.9,34,5.8,34,5.7,34c-0.3,0.1-0.5,0.1-0.7,0.2
	c-0.2,0.1-0.6,0.2-0.8,0.3h0h0c0,0,0,0-0.1,0c0,0,0,0,0,0l0,0c0,0,0,0-0.1,0c-0.1,0-0.1-0.1-0.2-0.2c-0.1-0.1-0.1-0.1-0.1-0.2l0,0
	c-0.1-0.1-0.1-0.3-0.2-0.7c-0.1-0.3-0.1-0.7-0.1-1c0-0.3,0-0.6,0-1l0-0.1c0-0.2,0-0.4,0-0.7v0c0-0.2,0-0.5-0.1-0.7
	c-0.1-0.4-0.2-0.9-0.3-1.3C3,28.5,2.9,28.2,2.9,28c-0.1-0.2-0.1-0.3-0.1-0.4c-0.1-0.3-0.1-0.6-0.2-1c0-0.3-0.1-0.7-0.1-1.1
	c-0.1-0.8-0.1-1.5-0.1-2.2c0-1.5,0.2-3,0.6-4.3c0.4-1.5,0.9-2.8,1.6-4c0.7-1.2,1.7-2.4,2.8-3.4c2.2-2,4.9-3.5,7.8-4.3
	c1.5-0.4,2.9-0.6,4.3-0.6c0.1,0,0.1,0,0.2,0c0.8,0,1.6,0.1,2.2,0.2C22.7,7,23.4,7.3,24,7.6c0.2,0.1,0.4,0.2,0.6,0.4
	c0.1,0.1,0.2,0.1,0.3,0.2C24.9,8.3,25,8.4,25,8.4l0,0l0,0c0.5,0.5,1,1,1.4,1.5c0.2,0.2,0.3,0.4,0.5,0.7c0,0,0,0,0,0
	c0,0.1-0.1,0.2-0.1,0.3c-0.2,0.7-0.4,1.4-0.5,2.3c-0.3,1.4-0.4,3-0.3,4.6c0,1.7,0.2,3.2,0.6,4.6c0.1,0.3,0.1,0.5,0.2,0.8l0.2,0.9
	c-1.3,2.5-3.3,4.7-5.7,6.4c-0.3,0.2-0.6,0.4-0.9,0.6c-0.3,0.2-0.6,0.4-0.9,0.6c-0.6,0.4-1.3,0.7-2,1c-1.6,0.7-2.9,1.1-4.1,1.4
	C12.5,34.4,11.9,34.5,11.3,34.5z M26.4,8.9l0.3-0.6c0.2-0.6,0.6-1.3,1-2c0.1-0.2,0.2-0.4,0.3-0.5c0,0.1,0,0.1,0,0.2
	C28,6.3,28,6.7,28,7c0,0.6-0.1,1.3-0.3,2c-0.1,0.2-0.1,0.3-0.2,0.5c0,0.1-0.1,0.2-0.1,0.2l-0.1,0.3c0,0,0,0.1,0,0.1
	c-0.1-0.1-0.2-0.2-0.3-0.4C26.8,9.3,26.6,9.1,26.4,8.9z M31.9,29.8c-1.2-1.1-2.1-2.2-2.8-3.4c-0.2-0.3-0.3-0.6-0.5-1
	c-0.1-0.2-0.2-0.4-0.3-0.7c0-0.1-0.1-0.2-0.1-0.4c-0.2-0.6-0.4-1.3-0.6-2.1c-0.3-1.4-0.4-2.8-0.4-4.4c0-1.5,0.2-3,0.5-4.4
	c0.1-0.8,0.3-1.5,0.5-2.1l0,0c0-0.1,0.1-0.2,0.1-0.3c0-0.1,0-0.1,0.1-0.2c0-0.1,0.1-0.3,0.2-0.4l0,0l0.1-0.2c0-0.1,0.1-0.2,0.1-0.3
	c0.1-0.2,0.2-0.4,0.2-0.6c0.3-0.8,0.5-1.6,0.5-2.5c0-0.1,0-0.2,0-0.2C29.9,6.9,30,7,30.2,7.1l0.5,0.2c0.2,0.1,0.3,0.2,0.4,0.2
	C31.4,7.7,31.7,7.9,32,8c0.6,0.4,1.1,0.8,1.5,1.2c0.9,0.9,1.8,1.9,2.4,3.1c0.2,0.3,0.3,0.6,0.4,0.9c0.1,0.3,0.2,0.6,0.3,0.9
	c0.2,0.6,0.4,1.3,0.5,1.9c0.2,1.2,0.3,2.5,0.2,4.1c0,0.6-0.1,1.2-0.2,2c-0.1,0.8-0.2,1.4-0.3,2c-0.1,0.7-0.4,1.4-0.6,2.2
	c-0.2,0.6-0.4,1.2-0.5,1.8c-0.3,1.2-0.5,2.5-0.5,3.8C34,31.5,32.9,30.7,31.9,29.8z M11.3,33.1c0,0.2-0.2,0.5-0.4,0.5
	c-0.3,0-0.5-0.2-0.5-0.4c0-0.2,0.2-0.5,0.4-0.5C11.1,32.7,11.3,32.8,11.3,33.1z M12.5,31.6c0,0.3-0.2,0.6-0.5,0.6
	c-0.3,0-0.6-0.2-0.6-0.5c0-0.3,0.2-0.6,0.5-0.6C12.2,31.1,12.5,31.3,12.5,31.6z M16.5,30.5c0,0.6-0.4,1.1-1,1.1
	c-0.6,0-1.1-0.4-1.1-1c0-0.6,0.4-1.1,1-1.1C16,29.5,16.5,29.9,16.5,30.5z M14.5,32.3c0,0.4-0.3,0.8-0.7,0.8c-0.4,0-0.8-0.3-0.8-0.7
	c0-0.4,0.3-0.8,0.7-0.8C14.2,31.6,14.5,31.9,14.5,32.3z"/>
</svg>
