<svg xmlns="http://www.w3.org/2000/svg" xmlns:xlink="http://www.w3.org/1999/xlink" viewBox="0 0 110.18 37"><defs><style>.cls-1{fill:none;}.cls-2{clip-path:url(#clip-path);}.cls-3{fill:#fff;}.cls-4{clip-path:url(#clip-path-2);}</style><clipPath id="clip-path" transform="translate(0)"><rect class="cls-1" width="39.47" height="37"/></clipPath><clipPath id="clip-path-2" transform="translate(0)"><rect class="cls-1" x="55.09" y="9.87" width="55.09" height="18.09"/></clipPath></defs><g id="Camada_2" data-name="Camada 2"><g id="Camada_1-2" data-name="Camada 1"><g class="cls-2"><path class="cls-3" d="M39.34,15.87a19.69,19.69,0,0,0-.47-2.26c-.09-.33-.21-.72-.36-1.11s-.3-.7-.49-1.07A14.27,14.27,0,0,0,33.47,6.2a11.59,11.59,0,0,0-1-.63L32,5.28,31.48,5a3.25,3.25,0,0,1-1.27-1.16h0A1.49,1.49,0,0,1,30,3.54h0l0-.08.05-.06,0,0A1.5,1.5,0,0,0,30.32,3a1.47,1.47,0,0,0,.15-.68V2.28l0,0a9,9,0,0,0-.61-1.16L29.16,0,28.4,1,27.05,2.8c-.84,1.11-1.71,2.26-2.55,3.4l-.22.29a8.19,8.19,0,0,0-2.14-.78,12.51,12.51,0,0,0-2.47-.28h-.31a18.58,18.58,0,0,0-4.57.6,21.27,21.27,0,0,0-8.67,4.49,17.92,17.92,0,0,0-3.23,3.7,17.06,17.06,0,0,0-2,4.47A21.58,21.58,0,0,0,0,23.52,22.6,22.6,0,0,0,0,26a12.75,12.75,0,0,0,.33,2.46A5.76,5.76,0,0,0,.53,29c.06.19.12.38.17.57a6.62,6.62,0,0,1,.22,1.13h0a7.36,7.36,0,0,1,0,1.41c0,.32,0,.64,0,1A7.54,7.54,0,0,0,1,34.36a3.63,3.63,0,0,0,.38,1.27,2.89,2.89,0,0,0,.92,1A2.1,2.1,0,0,0,3,37a1.61,1.61,0,0,0,.44,0,1.51,1.51,0,0,0,.3,0,4.67,4.67,0,0,0,1-.3l.2-.07a4.53,4.53,0,0,1,1.08-.3h0a5.34,5.34,0,0,1,.69-.05,6.31,6.31,0,0,1,1.57.22l.45.13a7.25,7.25,0,0,0,.74.19,6.36,6.36,0,0,0,1.28.11,11.33,11.33,0,0,0,2.48-.3A21.81,21.81,0,0,0,17.89,35c.73-.35,1.45-.75,2.16-1.18s1.27-.83,2-1.38A20.63,20.63,0,0,0,25.64,29a19,19,0,0,0,2.18-3.25c.07.17.15.33.23.5.2.38.41.73.62,1.07A15.16,15.16,0,0,0,32,31a20.68,20.68,0,0,0,4.21,2.3A21.54,21.54,0,0,1,37.24,29c.17-.56.38-1.1.59-1.67.05-.13.1-.26.14-.38s.39-1,.7-2.14A27.89,27.89,0,0,0,39.34,15.87ZM10.94,35.19h-.15a6.73,6.73,0,0,1-.95-.09h0a3.93,3.93,0,0,1-.55-.15l-.53-.15a7.77,7.77,0,0,0-2.07-.29,6.15,6.15,0,0,0-.87.06l-.19,0-.21,0-.39.1a6.1,6.1,0,0,0-.68.22,5.62,5.62,0,0,1-.85.27H3.4a.15.15,0,0,1-.08,0A1.16,1.16,0,0,1,3.1,35a.81.81,0,0,1-.14-.2H3a2.31,2.31,0,0,1-.2-.7,9,9,0,0,1-.09-1c0-.32,0-.65,0-1v-.1c0-.19,0-.42,0-.69h0c0-.25,0-.49-.06-.71a8.19,8.19,0,0,0-.3-1.39c-.07-.23-.15-.47-.22-.68L2,28a8.79,8.79,0,0,1-.2-1c-.05-.34-.09-.72-.12-1.11,0-.84-.07-1.59-.06-2.29a20.2,20.2,0,0,1,.61-4.53,15.25,15.25,0,0,1,1.72-4.21,16.63,16.63,0,0,1,2.9-3.58A19.58,19.58,0,0,1,15,6.73a16.94,16.94,0,0,1,4.46-.65h.22A11.5,11.5,0,0,1,22,6.33a7.21,7.21,0,0,1,2.17.8,6.48,6.48,0,0,1,.59.41c.08.06.18.13.28.22l.24.19h0l0,0a9.48,9.48,0,0,1,1.5,1.6c.17.22.33.47.5.72,0,0,0,0,0,0a3,3,0,0,0-.13.36,19.79,19.79,0,0,0-.56,2.4A25.15,25.15,0,0,0,26.25,18a21.39,21.39,0,0,0,.57,4.83c.07.28.14.57.23.85l.18,1a18.65,18.65,0,0,1-6,6.66c-.28.2-.59.41-1,.65s-.63.39-1,.59c-.67.38-1.36.72-2.06,1A20.65,20.65,0,0,1,12.9,35,9.86,9.86,0,0,1,10.94,35.19ZM26.69,8.44,27,7.82c.26-.58.6-1.34,1-2.05q.18-.31.33-.54l0,.17a8,8,0,0,1,.08,1,5.93,5.93,0,0,1-.35,2.05,4.37,4.37,0,0,1-.19.48,2.56,2.56,0,0,1-.11.24l-.13.3,0,.06-.27-.37C27.11,8.93,26.9,8.67,26.69,8.44Zm5.79,21.88a14.88,14.88,0,0,1-2.88-3.55c-.17-.29-.34-.62-.52-1-.1-.22-.19-.46-.27-.68s-.09-.25-.14-.37a15.09,15.09,0,0,1-.59-2.19A22.94,22.94,0,0,1,27.7,18a25.38,25.38,0,0,1,.47-4.57,18.34,18.34,0,0,1,.56-2.19h0a2.08,2.08,0,0,1,.12-.32c0-.07,0-.13.07-.2s.12-.29.18-.44l0,0,.11-.25.15-.29c.09-.2.17-.4.25-.62a8.07,8.07,0,0,0,.49-2.58V6.21a5.36,5.36,0,0,0,.57.34l.48.23.46.25c.31.17.6.35.88.54a12.13,12.13,0,0,1,1.61,1.29,13.29,13.29,0,0,1,2.53,3.28c.16.3.31.61.44.92a8.85,8.85,0,0,1,.35,1,14.33,14.33,0,0,1,.49,2,22.57,22.57,0,0,1,.23,4.26A21.13,21.13,0,0,1,38,22.46a19.9,19.9,0,0,1-.35,2.12,20.81,20.81,0,0,1-.63,2.3c-.19.62-.4,1.26-.55,1.91a19.86,19.86,0,0,0-.55,4A20.87,20.87,0,0,1,32.48,30.32ZM10.94,33.75a.47.47,0,1,1-.94,0,.46.46,0,0,1,.44-.49A.46.46,0,0,1,10.94,33.75Zm1.23-1.54a.61.61,0,0,1-.57.64.61.61,0,0,1-.07-1.21A.61.61,0,0,1,12.17,32.21Zm4.23-1.14a1.11,1.11,0,0,1-2.21.12,1.11,1.11,0,0,1,2.21-.12Zm-2.11,1.84a.77.77,0,0,1-.74.82.78.78,0,0,1-.82-.74.78.78,0,0,1,1.56-.08Z" transform="translate(0)"/></g><g class="cls-4"><path class="cls-3" d="M73,9.88V28H70.38V9.88Zm30.82.43c0-.15-.11-.29-.16-.43h-2.51c-.06.14-.1.28-.15.43-1.88,5.2-4.47,12.44-6.34,17.64h2.82l4.93-13.71L107.36,28h2.82C108.32,22.78,105.73,15.54,103.85,10.31ZM57.74,9.87H55.09V26.6A1.34,1.34,0,0,0,56.42,28H66.7V25.26h-9Zm44.7,10.82A1.35,1.35,0,1,0,103.76,22,1.33,1.33,0,0,0,102.44,20.69ZM92.21,9.88H89.6L84.46,21.35,79.32,9.88H76.71v.39h0V28h2.66V16.48L83,24.61l.23.52,0,.06a1.38,1.38,0,0,0,.78.7,1.29,1.29,0,0,0,.84,0,1.36,1.36,0,0,0,.77-.68h0a.21.21,0,0,1,0-.07h0l.23-.51,3.63-8.12V28h2.66V10.27h0Z" transform="translate(0)"/></g></g></g></svg>